<svg width="23" height="16" viewBox="0 0 23 16" fill="none" xmlns="http://www.w3.org/2000/svg">
<path d="M21.4692 7C22.0215 7 22.4692 7.44772 22.4692 8C22.4692 8.55228 22.0215 9 21.4692 9V7ZM0.823654 8.70711C0.43313 8.31658 0.43313 7.68342 0.823654 7.29289L7.18762 0.928932C7.57814 0.538408 8.21131 0.538408 8.60183 0.928932C8.99235 1.31946 8.99235 1.95262 8.60183 2.34315L2.94497 8L8.60183 13.6569C8.99235 14.0474 8.99235 14.6805 8.60183 15.0711C8.21131 15.4616 7.57814 15.4616 7.18762 15.0711L0.823654 8.70711ZM21.4692 9H1.53076V7H21.4692V9Z" fill="#428BF9"/>
</svg>
