<svg width="584" height="290" viewBox="0 0 584 290" fill="none" xmlns="http://www.w3.org/2000/svg">
<g clip-path="url(#clip0_1380_40)">
<mask id="mask0_1380_40" style="mask-type:luminance" maskUnits="userSpaceOnUse" x="27" y="-31" width="609" height="395">
<path d="M636 -31H27V364H636V-31Z" fill="white"/>
</mask>
<g mask="url(#mask0_1380_40)">
<path d="M93.8567 98.1396C110.494 98.1396 123.982 84.6585 123.982 68.0288C123.982 51.399 110.494 37.918 93.8567 37.918C77.219 37.918 63.7314 51.399 63.7314 68.0288C63.7314 84.6585 77.219 98.1396 93.8567 98.1396Z" stroke="#212121" stroke-linecap="round" stroke-linejoin="round"/>
<path d="M123.982 68.0288H184.889" stroke="#212121" stroke-miterlimit="10"/>
<path d="M127.32 59.6279H90.6143V81.2351H127.32V59.6279Z" fill="white" stroke="#212121" stroke-linecap="round" stroke-linejoin="round"/>
<path d="M102.158 59.6279H73.624V81.2351H102.158V59.6279Z" fill="white" stroke="#212121" stroke-linecap="round" stroke-linejoin="round"/>
<path d="M74.304 59.6279H54.209V81.2351H74.304V59.6279Z" fill="white" stroke="#212121" stroke-linecap="round" stroke-linejoin="round"/>
<path d="M134.691 59.6279H107.337V81.2351H134.691V59.6279Z" fill="white" stroke="#212121" stroke-linecap="round" stroke-linejoin="round"/>
<path d="M121.995 63.8242H111.69V81.2355H121.995V63.8242Z" fill="#428BF9" stroke="#212121" stroke-linecap="round" stroke-linejoin="round"/>
<path d="M107.337 59.6282L121.995 53.3257L134.941 59.6282H107.337Z" fill="white" stroke="#212121" stroke-linecap="round" stroke-linejoin="round"/>
<path d="M121.995 53.3257H88.5234L102.158 59.6282H107.337L121.995 53.3257Z" fill="#212121" stroke="#212121" stroke-linecap="round" stroke-linejoin="round"/>
<path d="M88.5232 53.3257H62.8711V59.6282H102.158L88.5232 53.3257Z" fill="#212121" stroke="#212121" stroke-linecap="round" stroke-linejoin="round"/>
<path d="M62.8715 53.3257L54.209 59.6282H62.8715H68.2479H74.304L62.8715 53.3257Z" fill="white" stroke="#212121" stroke-linecap="round" stroke-linejoin="round"/>
<path d="M78.0199 61.8823H78.8722C78.9997 61.8823 79.1031 61.9857 79.1031 62.1132C79.1031 62.2406 78.9997 62.344 78.8722 62.344H78.0199C77.8924 62.344 77.7891 62.2406 77.7891 62.1132C77.7891 61.9857 77.8924 61.8823 78.0199 61.8823Z" fill="white" stroke="#212121" stroke-linecap="round" stroke-linejoin="round"/>
<path d="M81.2543 61.8823H82.1066C82.2341 61.8823 82.3374 61.9857 82.3374 62.1132C82.3374 62.2406 82.2341 62.344 82.1066 62.344H81.2543C81.1268 62.344 81.0234 62.2406 81.0234 62.1132C81.0234 61.9857 81.1268 61.8823 81.2543 61.8823Z" fill="white" stroke="#212121" stroke-linecap="round" stroke-linejoin="round"/>
<path d="M84.4974 61.8823H85.3498C85.4773 61.8823 85.5806 61.9857 85.5806 62.1132C85.5806 62.2406 85.4773 62.344 85.3498 62.344H84.4974C84.37 62.344 84.2666 62.2406 84.2666 62.1132C84.2666 61.9857 84.37 61.8823 84.4974 61.8823Z" fill="white" stroke="#212121" stroke-linecap="round" stroke-linejoin="round"/>
<path d="M87.7318 61.8823H88.5841C88.7116 61.8823 88.815 61.9857 88.815 62.1132C88.815 62.2406 88.7116 62.344 88.5841 62.344H87.7318C87.6043 62.344 87.501 62.2406 87.501 62.1132C87.501 61.9857 87.6043 61.8823 87.7318 61.8823Z" fill="white" stroke="#212121" stroke-linecap="round" stroke-linejoin="round"/>
<path d="M90.975 61.8823H91.8273C91.9548 61.8823 92.0582 61.9857 92.0582 62.1132C92.0582 62.2406 91.9548 62.344 91.8273 62.344H90.975C90.8475 62.344 90.7441 62.2406 90.7441 62.1132C90.7441 61.9857 90.8475 61.8823 90.975 61.8823Z" fill="white" stroke="#212121" stroke-linecap="round" stroke-linejoin="round"/>
<path d="M94.2094 61.8823H95.0617C95.1892 61.8823 95.2925 61.9857 95.2925 62.1132C95.2925 62.2406 95.1892 62.344 95.0617 62.344H94.2094C94.0819 62.344 93.9785 62.2406 93.9785 62.1132C93.9785 61.9857 94.0819 61.8823 94.2094 61.8823Z" fill="white" stroke="#212121" stroke-linecap="round" stroke-linejoin="round"/>
<path d="M97.4525 61.8823H98.3049C98.4324 61.8823 98.5357 61.9857 98.5357 62.1132C98.5357 62.2406 98.4324 62.344 98.3049 62.344H97.4525C97.325 62.344 97.2217 62.2406 97.2217 62.1132C97.2217 61.9857 97.325 61.8823 97.4525 61.8823Z" fill="white" stroke="#212121" stroke-linecap="round" stroke-linejoin="round"/>
<path d="M99.0357 64.5547H77.2891V81.2352H99.0357V64.5547Z" fill="#428BF9" stroke="#212121" stroke-linecap="round" stroke-linejoin="round"/>
<path d="M80.7227 66.7656H83.4367C83.7129 66.7656 83.9367 66.9895 83.9367 67.2656V68.851C83.9367 69.1272 83.7129 69.351 83.4367 69.351H80.7227C80.4465 69.351 80.2227 69.1272 80.2227 68.851V67.2656C80.2227 66.9895 80.4465 66.7656 80.7227 66.7656Z" stroke="#212121" stroke-linecap="round" stroke-linejoin="round"/>
<path d="M86.6846 66.7656H89.3986C89.6748 66.7656 89.8986 66.9895 89.8986 67.2656V68.851C89.8986 69.1272 89.6748 69.351 89.3986 69.351H86.6846C86.4084 69.351 86.1846 69.1272 86.1846 68.851V67.2656C86.1846 66.9895 86.4084 66.7656 86.6846 66.7656Z" stroke="#212121" stroke-linecap="round" stroke-linejoin="round"/>
<path d="M92.6377 66.7656H95.3518C95.6279 66.7656 95.8518 66.9895 95.8518 67.2656V68.851C95.8518 69.1272 95.6279 69.351 95.3518 69.351H92.6377C92.3616 69.351 92.1377 69.1272 92.1377 68.851V67.2656C92.1377 66.9895 92.3616 66.7656 92.6377 66.7656Z" stroke="#212121" stroke-linecap="round" stroke-linejoin="round"/>
<path d="M80.7227 71.6919H83.4367C83.7129 71.6919 83.9367 71.9158 83.9367 72.1919V73.7773C83.9367 74.0535 83.7129 74.2773 83.4367 74.2773H80.7227C80.4465 74.2773 80.2227 74.0535 80.2227 73.7773V72.1919C80.2227 71.9158 80.4465 71.6919 80.7227 71.6919Z" stroke="#212121" stroke-linecap="round" stroke-linejoin="round"/>
<path d="M86.6846 71.6924H89.3986C89.6748 71.6924 89.8986 71.9162 89.8986 72.1924V73.7778C89.8986 74.054 89.6748 74.2778 89.3986 74.2778H86.6846C86.4084 74.2778 86.1846 74.054 86.1846 73.7778V72.1924C86.1846 71.9162 86.4084 71.6924 86.6846 71.6924Z" stroke="#212121" stroke-linecap="round" stroke-linejoin="round"/>
<path d="M92.6377 71.6919H95.3518C95.6279 71.6919 95.8518 71.9158 95.8518 72.1919V73.7773C95.8518 74.0535 95.6279 74.2773 95.3518 74.2773H92.6377C92.3616 74.2773 92.1377 74.0535 92.1377 73.7773V72.1919C92.1377 71.9158 92.3616 71.6919 92.6377 71.6919Z" stroke="#212121" stroke-linecap="round" stroke-linejoin="round"/>
<path d="M80.7227 76.6191H83.4367C83.7129 76.6191 83.9367 76.843 83.9367 77.1191V78.7046C83.9367 78.9807 83.7129 79.2046 83.4367 79.2046H80.7227C80.4465 79.2046 80.2227 78.9807 80.2227 78.7046V77.1191C80.2227 76.843 80.4465 76.6191 80.7227 76.6191Z" stroke="#212121" stroke-linecap="round" stroke-linejoin="round"/>
<path d="M86.6846 76.6191H89.3986C89.6748 76.6191 89.8986 76.843 89.8986 77.1191V78.7046C89.8986 78.9807 89.6748 79.2046 89.3986 79.2046H86.6846C86.4084 79.2046 86.1846 78.9807 86.1846 78.7046V77.1191C86.1846 76.843 86.4084 76.6191 86.6846 76.6191Z" stroke="#212121" stroke-linecap="round" stroke-linejoin="round"/>
<path d="M92.6377 76.6191H95.3518C95.6279 76.6191 95.8518 76.843 95.8518 77.1191V78.7046C95.8518 78.9807 95.6279 79.2046 95.3518 79.2046H92.6377C92.3616 79.2046 92.1377 78.9807 92.1377 78.7046V77.1191C92.1377 76.843 92.3616 76.6191 92.6377 76.6191Z" stroke="#212121" stroke-linecap="round" stroke-linejoin="round"/>
<path d="M116.387 66.5513H118.272C118.548 66.5513 118.772 66.7751 118.772 67.0513V71.8449C118.772 72.121 118.548 72.3449 118.272 72.3449H116.387C116.111 72.3449 115.887 72.121 115.887 71.8449V67.0513C115.887 66.7751 116.111 66.5513 116.387 66.5513Z" stroke="#212121" stroke-linecap="round" stroke-linejoin="round"/>
<path d="M116.387 74.3154H118.272C118.548 74.3154 118.772 74.5393 118.772 74.8154V77.668C118.772 77.9442 118.548 78.168 118.272 78.168H116.387C116.111 78.168 115.887 77.9442 115.887 77.668V74.8154C115.887 74.5393 116.111 74.3154 116.387 74.3154Z" stroke="#212121" stroke-linecap="round" stroke-linejoin="round"/>
<path d="M132.017 63.8242H124.627V74.8127H132.017V63.8242Z" fill="white" stroke="#212121" stroke-linecap="round" stroke-linejoin="round"/>
<path d="M129.074 64.0732V74.8124" stroke="#212121" stroke-linecap="round" stroke-linejoin="round"/>
<path d="M124.919 69.1982H131.526" stroke="#212121" stroke-linecap="round" stroke-linejoin="round"/>
<path d="M68.4972 63.8242H60.1357V74.8127H68.4972V63.8242Z" fill="white" stroke="#212121" stroke-linecap="round" stroke-linejoin="round"/>
<path d="M64.583 64.0737V74.8129" stroke="#212121" stroke-linecap="round" stroke-linejoin="round"/>
<path d="M60.4287 69.1982H68.0073" stroke="#212121" stroke-linecap="round" stroke-linejoin="round"/>
<path d="M249.568 247.127C261.833 234.868 261.833 214.992 249.568 202.732C237.303 190.473 217.417 190.473 205.151 202.732C192.886 214.992 192.886 234.868 205.151 247.127C217.417 259.386 237.303 259.386 249.568 247.127Z" stroke="#212121" stroke-linecap="round" stroke-linejoin="round"/>
<path d="M260.021 224.977H280.571V185.958H294.456" stroke="#212121" stroke-miterlimit="10"/>
<path d="M197.86 232.583C197.86 232.583 190.23 231.872 190.002 231.748C189.784 231.625 189.461 231.378 189.461 231.378L185.751 231.426L185.703 230.544L188.892 230.496L194.121 231.037V230.477C194.121 230.477 194.368 226.92 197.016 224.757C199.664 222.594 201.163 222.3 204.798 222.424C208.433 222.547 212.485 228.087 213.073 229.168C213.662 230.25 213.909 230.439 213.909 230.439H249.972L250.001 229.348C250.096 225.971 252.43 223.078 255.704 222.262C257.194 221.893 258.77 221.987 260.203 222.538L261.731 223.116C264.995 224.359 266.998 227.679 266.523 231.141C266.391 232.137 266.4 232.792 266.742 232.555C267.795 231.815 266.77 233.219 265.878 233.437C264.995 233.655 263.961 233.759 263.961 233.759H247.078L211.27 233.674L197.86 232.574V232.583Z" fill="#212121" stroke="#212121" stroke-linecap="round" stroke-linejoin="round"/>
<path d="M236.382 209.769C236.382 209.769 248.89 218.06 249.222 218.06C249.555 218.06 249.754 217.918 249.991 218.107C250.228 218.297 250.466 218.392 250.466 218.392L263.838 219.976C263.838 219.976 268.63 220.934 269.589 221.219C270.547 221.503 271.364 222.414 271.316 222.803C271.269 223.182 270.785 226.445 270.785 226.445L270.253 230.61C270.253 230.61 270.538 232.099 270.301 232.289C270.063 232.478 268.963 232.867 268.384 233.01C267.805 233.152 266.182 233.152 266.182 233.152C266.182 233.152 266.039 230.467 265.508 228.362C264.977 226.256 263.401 223.808 258.514 223.571C253.484 223.334 251.225 229.272 251.225 229.272L250.219 233.01L248.302 233.683H211.251C211.251 233.683 211.394 229.519 210.578 227.84C209.761 226.161 207.56 224.292 204.874 223.96C202.188 223.628 199.939 224.434 198.743 224.918C197.547 225.393 196.152 228.656 195.962 229.709C195.772 230.762 195.535 230.809 195.535 230.809C195.535 230.809 186.861 230.335 186.33 229.898C185.798 229.471 185.086 227.508 184.944 224.776C184.802 222.044 184.991 219.454 185.276 219.028C185.561 218.601 186.187 218.553 186.187 218.553L197.063 217.832C197.063 217.832 207.028 209.693 207.607 209.542C207.844 209.485 208.186 209.399 208.509 209.323C209.088 209.181 209.676 209.105 210.264 209.077L215.892 208.868L223.75 208.916C223.75 208.916 231.798 208.821 236.353 209.779L236.382 209.769Z" fill="#428BF9" stroke="#212121" stroke-linecap="round" stroke-linejoin="round"/>
<path opacity="0.62" d="M186.956 220.801H252.706L268.26 221.74H186.956V220.801Z" fill="white"/>
<path d="M196.361 227.878H183.795C183.568 227.878 183.378 227.688 183.378 227.461V226.341C183.378 226.114 183.568 225.924 183.795 225.924H197.224L196.361 227.887V227.878Z" fill="#212121" stroke="#212121" stroke-linecap="round" stroke-linejoin="round"/>
<path d="M265.897 228.694H271.782C272.076 228.694 272.322 228.456 272.322 228.153V227.271C272.322 226.977 272.085 226.73 271.782 226.73H265.224L265.888 228.694H265.897Z" fill="#212121" stroke="#212121" stroke-linecap="round" stroke-linejoin="round"/>
<path d="M251.718 226.256H246.735V227.167H251.718V226.256Z" fill="#212121" stroke="#212121" stroke-linecap="round" stroke-linejoin="round"/>
<path d="M246.346 226.256H225.885V227.167H246.346V226.256Z" fill="#212121" stroke="#212121" stroke-linecap="round" stroke-linejoin="round"/>
<path d="M225.506 226.256V227.167H211.745L211.271 226.256H225.506Z" fill="#212121" stroke="#212121" stroke-linecap="round" stroke-linejoin="round"/>
<path d="M268.392 233.01C267.814 233.152 266.191 233.152 266.191 233.152C266.191 233.152 266.134 232.109 265.963 230.809H270.3C270.366 231.217 270.499 232.147 270.31 232.298C270.072 232.488 268.971 232.877 268.392 233.019V233.01Z" fill="#212121" stroke="#212121" stroke-linecap="round" stroke-linejoin="round"/>
<path d="M211.251 231.615H250.608L250.238 233L248.321 233.674H211.27C211.27 233.674 211.298 232.763 211.251 231.615Z" fill="#212121" stroke="#212121" stroke-linecap="round" stroke-linejoin="round"/>
<path d="M226.607 221.218H229.957V220.592H226.607V221.218Z" fill="#212121" stroke="#212121" stroke-linecap="round" stroke-linejoin="round"/>
<path d="M207.588 221.218H210.938V220.592H207.588V221.218Z" fill="#212121" stroke="#212121" stroke-linecap="round" stroke-linejoin="round"/>
<path d="M246.394 218.392C245.436 218.06 236.277 210.917 236.088 210.196C236.031 209.988 236.021 209.826 236.04 209.703C236.154 209.722 236.268 209.751 236.372 209.77C236.372 209.77 248.881 218.06 249.213 218.06C249.213 218.06 247.343 218.734 246.385 218.392H246.394Z" fill="white" stroke="#212121" stroke-linecap="round" stroke-linejoin="round"/>
<path d="M197.993 217.823C197.804 217.87 196.655 217.87 196.655 217.87L196.674 217.851L197.092 217.823C197.092 217.823 207.057 209.684 207.636 209.532C207.636 209.532 206.962 210.206 206.44 210.633C205.908 211.059 198.193 217.766 198.003 217.813L197.993 217.823Z" fill="white" stroke="#212121" stroke-linecap="round" stroke-linejoin="round"/>
<path d="M185.342 220.687C185.675 220.659 185.959 220.905 185.978 221.237L186.13 223.248C186.159 223.58 185.912 223.865 185.58 223.884L185.143 223.912C185.067 223.912 184.991 223.912 184.915 223.884C184.887 222.698 184.915 221.579 184.982 220.706L185.342 220.678V220.687Z" fill="white" stroke="#212121" stroke-linecap="round" stroke-linejoin="round"/>
<path d="M252.325 231.558C252.325 228.011 255.201 225.127 258.75 225.127C262.3 225.127 265.175 228.001 265.175 231.558C265.175 235.116 262.3 237.98 258.75 237.98C255.201 237.98 252.325 235.106 252.325 231.558Z" fill="#212121" stroke="#212121" stroke-linecap="round" stroke-linejoin="round"/>
<path d="M258.751 235.542C260.952 235.542 262.737 233.759 262.737 231.558C262.737 229.358 260.952 227.574 258.751 227.574C256.549 227.574 254.765 229.358 254.765 231.558C254.765 233.759 256.549 235.542 258.751 235.542Z" fill="white" stroke="#212121" stroke-linecap="round" stroke-linejoin="round"/>
<path d="M197.29 231.558C197.29 228.011 200.166 225.127 203.725 225.127C207.283 225.127 210.15 228.001 210.15 231.558C210.15 235.116 207.274 237.98 203.725 237.98C200.175 237.98 197.29 235.106 197.29 231.558Z" fill="#212121" stroke="#212121" stroke-linecap="round" stroke-linejoin="round"/>
<path d="M203.715 235.542C205.917 235.542 207.701 233.759 207.701 231.558C207.701 229.358 205.917 227.574 203.715 227.574C201.514 227.574 199.729 229.358 199.729 231.558C199.729 233.759 201.514 235.542 203.715 235.542Z" fill="white" stroke="#212121" stroke-linecap="round" stroke-linejoin="round"/>
<path d="M234.408 210.927C234.408 210.927 244.468 218.696 244.344 218.857C244.221 219.018 243.68 218.952 243.68 218.952L206.051 218.032C206.051 218.032 205.253 216.922 205.291 216.315C205.32 215.708 206.24 214.693 206.24 214.693C206.24 214.693 209.951 210.566 210.938 210.282C211.925 209.997 225.629 210.187 225.629 210.187L233.336 210.661C233.336 210.661 234.038 210.756 234.417 210.917L234.408 210.927Z" fill="white" stroke="#212121" stroke-linecap="round" stroke-linejoin="round"/>
<path d="M226.759 218.535L223.181 218.449L221.71 210.159C222.906 210.168 223.95 210.178 224.652 210.187L226.759 218.535Z" fill="#212121" stroke="#212121" stroke-width="0.5" stroke-linecap="round" stroke-linejoin="round"/>
<path d="M223.086 210.509L224.576 217.994" stroke="#979797" stroke-linecap="round" stroke-linejoin="round"/>
<path d="M211.745 210.206L210.862 216.03L211.233 218.155L210.094 218.126L211.052 210.262C211.204 210.244 211.441 210.225 211.745 210.206Z" fill="#212121" stroke="#212121" stroke-linecap="round" stroke-linejoin="round"/>
<path d="M241.136 216.921L242.218 218.762C242.218 218.762 242 219.046 241.677 218.857C241.364 218.667 240.377 217.813 240.377 217.813L241.136 216.921Z" fill="white" stroke="#212121" stroke-linecap="round" stroke-linejoin="round"/>
<path d="M239.988 218.022H240.026C240.557 218.117 241.06 217.757 241.146 217.225L241.241 216.647C241.326 216.115 240.966 215.613 240.434 215.527H240.396L239.979 218.022H239.988Z" fill="white" stroke="#212121" stroke-linecap="round" stroke-linejoin="round"/>
<path d="M207.009 222.443C206.744 222.234 206.544 222.035 206.431 221.797C206.127 221.181 205.766 219.663 205.586 218.838" stroke="#212121" stroke-width="0.5" stroke-linecap="round" stroke-linejoin="round"/>
<path d="M217.079 230.799H212.324C212.324 230.799 211.698 226.246 210.027 224.672C209.107 223.799 208.234 223.277 207.569 222.841" stroke="#212121" stroke-width="0.5" stroke-linecap="round" stroke-linejoin="round"/>
<path d="M245.113 230.8H217.933" stroke="#212121" stroke-width="0.5" stroke-linecap="round" stroke-linejoin="round"/>
<path d="M246.613 222.129C246.699 224.017 246.613 227.441 246.499 228.409C246.357 229.652 246.167 230.799 246.167 230.799H245.702" stroke="#212121" stroke-width="0.5" stroke-linecap="round" stroke-linejoin="round"/>
<path d="M245.729 219.549C245.729 219.549 246.261 220.128 246.498 220.991" stroke="#212121" stroke-width="0.5" stroke-linecap="round" stroke-linejoin="round"/>
<path d="M225.706 225.004C225.773 227.281 225.792 230.515 225.792 230.515" stroke="#212121" stroke-width="0.5" stroke-linecap="round" stroke-linejoin="round"/>
<path d="M224.643 218.828C224.643 218.828 225.459 221.987 225.601 222.898C225.63 223.106 225.658 223.618 225.687 224.282" stroke="#212121" stroke-width="0.5" stroke-linecap="round" stroke-linejoin="round"/>
<path d="M249.821 219.331L247.875 219.151" stroke="#212121" stroke-width="0.5" stroke-linecap="round" stroke-linejoin="round"/>
<path d="M269.599 221.219L251.017 219.445" stroke="#212121" stroke-width="0.5" stroke-linecap="round" stroke-linejoin="round"/>
<path d="M221.249 149.901H240.363V160.623H314.523" stroke="#212121" stroke-miterlimit="10"/>
<path d="M184.061 186.502C204.604 186.502 221.257 169.857 221.257 149.324C221.257 128.791 204.604 112.146 184.061 112.146C163.518 112.146 146.864 128.791 146.864 149.324C146.864 169.857 163.518 186.502 184.061 186.502Z" stroke="#212121" stroke-linecap="round" stroke-linejoin="round"/>
<path d="M162.094 150.149L196.708 169.083C198.192 169.895 200.053 169.351 200.865 167.868L212.767 146.13C213.578 144.647 213.034 142.787 211.55 141.975L176.936 123.041C175.452 122.23 173.591 122.774 172.779 124.257L160.877 145.995C160.065 147.478 160.61 149.338 162.094 150.149Z" fill="#428BF9" stroke="#212121" stroke-linecap="round" stroke-linejoin="round"/>
<path d="M166.702 135.356L206.697 157.233L209.716 151.72L169.721 129.843L166.702 135.356Z" fill="#212121" stroke="#212121" stroke-linecap="round" stroke-linejoin="round"/>
<path d="M199.579 162.969L191.613 158.619" stroke="#212121" stroke-linecap="round" stroke-linejoin="round"/>
<path d="M198.779 164.439L190.812 160.08" stroke="#212121" stroke-linecap="round" stroke-linejoin="round"/>
<path d="M157.519 166.941L196.369 173.844C198.034 174.14 199.624 173.031 199.92 171.366L204.259 146.969C204.555 145.304 203.445 143.715 201.78 143.419L162.93 136.516C161.265 136.221 159.675 137.33 159.379 138.994L155.04 163.392C154.744 165.056 155.854 166.645 157.519 166.941Z" fill="white" stroke="#212121" stroke-linecap="round" stroke-linejoin="round"/>
<path d="M157.16 151.45L202.049 159.426L203.149 153.238L158.261 145.262L157.16 151.45Z" fill="#212121" stroke="#212121" stroke-linecap="round" stroke-linejoin="round"/>
<path d="M197.145 167.131L188.207 165.54" stroke="#212121" stroke-linecap="round" stroke-linejoin="round"/>
<path d="M196.852 168.773L187.914 167.191" stroke="#212121" stroke-linecap="round" stroke-linejoin="round"/>
<path d="M258.335 73.0036C261.546 52.7229 247.7 33.6881 227.408 30.4881C207.116 27.288 188.063 41.1346 184.851 61.4152C181.64 81.6959 195.486 100.731 215.778 103.931C236.07 107.131 255.123 93.2842 258.335 73.0036Z" stroke="#212121" stroke-linecap="round" stroke-linejoin="round"/>
<path d="M243.158 29.6719H202.436V92.4046H243.158V29.6719Z" fill="white" stroke="#212121" stroke-linecap="round" stroke-linejoin="round"/>
<path d="M205.423 44.979H240.536" stroke="#212121" stroke-linecap="round" stroke-linejoin="round"/>
<path d="M205.423 60.666H240.536" stroke="#212121" stroke-linecap="round" stroke-linejoin="round"/>
<path d="M205.423 78.5864H240.536" stroke="#212121" stroke-linecap="round" stroke-linejoin="round"/>
<path d="M210.651 45.3511V78.5862" stroke="#212121" stroke-linecap="round" stroke-linejoin="round"/>
<path d="M218.123 45.3511V78.5862" stroke="#212121" stroke-linecap="round" stroke-linejoin="round"/>
<path d="M225.594 45.3511V87.1779H239.419" stroke="#212121" stroke-linecap="round" stroke-linejoin="round"/>
<path d="M233.064 45.3511V87.1779" stroke="#212121" stroke-linecap="round" stroke-linejoin="round"/>
<path d="M235.325 34.3716L195.374 42.2565L207.532 103.801L247.483 95.916L235.325 34.3716Z" fill="white" stroke="#212121" stroke-linecap="round" stroke-linejoin="round"/>
<path d="M201.273 56.7053L235.724 49.9004" stroke="#212121" stroke-linecap="round" stroke-linejoin="round"/>
<path d="M204.312 72.087L238.764 65.2896" stroke="#212121" stroke-linecap="round" stroke-linejoin="round"/>
<path d="M207.784 89.6724L242.234 82.875" stroke="#212121" stroke-linecap="round" stroke-linejoin="round"/>
<path d="M206.474 56.0576L212.917 88.6599" stroke="#212121" stroke-linecap="round" stroke-linejoin="round"/>
<path d="M213.803 54.6133L220.246 87.2156" stroke="#212121" stroke-linecap="round" stroke-linejoin="round"/>
<path d="M221.14 53.1611L229.244 94.1913L242.801 91.5185" stroke="#212121" stroke-linecap="round" stroke-linejoin="round"/>
<path d="M228.47 51.7173L236.574 92.7475" stroke="#212121" stroke-linecap="round" stroke-linejoin="round"/>
<path d="M258.797 67.2236H277.903V114.324H294.875" stroke="#212121" stroke-miterlimit="10"/>
<path d="M477.201 44.1396H310.592C305.147 44.1396 300.286 46.4784 296.888 50.1756C293.069 53.761 290.764 58.9113 291.022 64.5775L294.531 141.222V346.641C294.531 355.961 302.093 363.519 311.418 363.519H474.448C479.36 363.519 483.765 361.412 486.853 358.068C490.199 354.981 492.307 350.578 492.307 345.669V140.25L495.817 63.6059C496.298 53.0044 487.834 44.1396 477.218 44.1396H477.201Z" fill="#428BF9" stroke="#212121" stroke-linecap="round" stroke-linejoin="round"/>
<path opacity="0.2" d="M486.397 46.5645C488.857 49.8833 490.259 54.0277 490.053 58.4901L486.543 135.134V340.553C486.543 345.463 484.436 349.865 481.089 352.952C478.001 356.296 473.597 358.403 468.685 358.403H305.654C302.755 358.403 300.02 357.672 297.637 356.382C300.699 360.69 305.714 363.51 311.409 363.51H474.44C479.352 363.51 483.756 361.404 486.844 358.059C490.191 354.972 492.298 350.57 492.298 345.66V140.242L495.808 63.5974C496.143 56.3406 492.272 49.9005 486.397 46.5645Z" fill="#212121"/>
<path d="M477.201 44.1396H310.592C305.147 44.1396 300.286 46.4784 296.888 50.1756C293.069 53.761 290.764 58.9113 291.022 64.5775L294.531 141.222V346.641C294.531 355.961 302.093 363.519 311.418 363.519H474.448C479.36 363.519 483.765 361.412 486.853 358.067C490.199 354.981 492.307 350.578 492.307 345.669V140.25L495.817 63.6059C496.298 53.0044 487.834 44.1396 477.218 44.1396H477.201Z" stroke="#212121" stroke-linecap="round" stroke-linejoin="round"/>
<path d="M483.24 137.903L486.466 66.4003C486.758 59.9001 481.571 54.4746 475.059 54.4746H312.734C306.231 54.4746 301.035 59.9001 301.327 66.4003L304.553 137.903H483.24Z" fill="#212121" stroke="#212121" stroke-linecap="round" stroke-linejoin="round"/>
<path d="M476.135 73.0381H310.919V128.892H476.135V73.0381Z" fill="#979797"/>
<path d="M467.979 81.189H319.073V120.741H467.979V81.189Z" fill="#E6E6E6"/>
<path d="M396.137 149.909H321.323C318.962 149.909 317.048 151.822 317.048 154.182V164.265C317.048 166.626 318.962 168.539 321.323 168.539H396.137C398.499 168.539 400.413 166.626 400.413 164.265V154.182C400.413 151.822 398.499 149.909 396.137 149.909Z" fill="white" stroke="#212121" stroke-linecap="round" stroke-linejoin="round"/>
<path d="M334.899 150.486V167.956" stroke="#212121" stroke-linecap="round" stroke-linejoin="round"/>
<path d="M351.411 150.486V167.956" stroke="#212121" stroke-linecap="round" stroke-linejoin="round"/>
<path d="M367.923 150.486V167.956" stroke="#212121" stroke-linecap="round" stroke-linejoin="round"/>
<path d="M385.406 150.486V167.956" stroke="#212121" stroke-linecap="round" stroke-linejoin="round"/>
<path d="M434.211 149.516H414.303C412.291 149.516 410.659 151.314 410.659 153.532V164.911C410.659 167.128 412.291 168.926 414.303 168.926H434.211C436.224 168.926 437.855 167.128 437.855 164.911V153.532C437.855 151.314 436.224 149.516 434.211 149.516Z" fill="white" stroke="#212121" stroke-linecap="round" stroke-linejoin="round"/>
<path d="M340.097 180.312H320.459C318.474 180.312 316.864 181.921 316.864 183.905V197.157C316.864 199.141 318.474 200.75 320.459 200.75H340.097C342.082 200.75 343.691 199.141 343.691 197.157V183.905C343.691 181.921 342.082 180.312 340.097 180.312Z" fill="white" stroke="#212121" stroke-linecap="round" stroke-linejoin="round"/>
<path d="M371.537 180.312H351.899C349.914 180.312 348.305 181.921 348.305 183.905V197.157C348.305 199.141 349.914 200.75 351.899 200.75H371.537C373.522 200.75 375.132 199.141 375.132 197.157V183.905C375.132 181.921 373.522 180.312 371.537 180.312Z" fill="white" stroke="#212121" stroke-linecap="round" stroke-linejoin="round"/>
<path d="M402.979 180.312H383.341C381.355 180.312 379.746 181.921 379.746 183.905V197.157C379.746 199.141 381.355 200.75 383.341 200.75H402.979C404.964 200.75 406.573 199.141 406.573 197.157V183.905C406.573 181.921 404.964 180.312 402.979 180.312Z" fill="white" stroke="#212121" stroke-linecap="round" stroke-linejoin="round"/>
<path d="M434.427 180.312H414.789C412.804 180.312 411.194 181.921 411.194 183.905V197.157C411.194 199.141 412.804 200.75 414.789 200.75H434.427C436.412 200.75 438.021 199.141 438.021 197.157V183.905C438.021 181.921 436.412 180.312 434.427 180.312Z" fill="white" stroke="#212121" stroke-linecap="round" stroke-linejoin="round"/>
<path d="M465.867 180.312H446.229C444.244 180.312 442.635 181.921 442.635 183.905V197.157C442.635 199.141 444.244 200.75 446.229 200.75H465.867C467.852 200.75 469.462 199.141 469.462 197.157V183.905C469.462 181.921 467.852 180.312 465.867 180.312Z" fill="white" stroke="#212121" stroke-linecap="round" stroke-linejoin="round"/>
<path d="M340.097 207.78H320.459C318.474 207.78 316.864 209.389 316.864 211.373V224.625C316.864 226.609 318.474 228.217 320.459 228.217H340.097C342.082 228.217 343.691 226.609 343.691 224.625V211.373C343.691 209.389 342.082 207.78 340.097 207.78Z" fill="white" stroke="#212121" stroke-linecap="round" stroke-linejoin="round"/>
<path d="M371.537 207.78H351.899C349.914 207.78 348.305 209.389 348.305 211.373V224.625C348.305 226.609 349.914 228.217 351.899 228.217H371.537C373.522 228.217 375.132 226.609 375.132 224.625V211.373C375.132 209.389 373.522 207.78 371.537 207.78Z" fill="white" stroke="#212121" stroke-linecap="round" stroke-linejoin="round"/>
<path d="M402.979 207.78H383.341C381.355 207.78 379.746 209.389 379.746 211.373V224.625C379.746 226.609 381.355 228.217 383.341 228.217H402.979C404.964 228.217 406.573 226.609 406.573 224.625V211.373C406.573 209.389 404.964 207.78 402.979 207.78Z" fill="white" stroke="#212121" stroke-linecap="round" stroke-linejoin="round"/>
<path d="M434.427 207.78H414.789C412.804 207.78 411.194 209.389 411.194 211.373V224.625C411.194 226.609 412.804 228.217 414.789 228.217H434.427C436.412 228.217 438.021 226.609 438.021 224.625V211.373C438.021 209.389 436.412 207.78 434.427 207.78Z" fill="white" stroke="#212121" stroke-linecap="round" stroke-linejoin="round"/>
<path d="M465.867 207.78H446.229C444.244 207.78 442.635 209.389 442.635 211.373V224.625C442.635 226.609 444.244 228.217 446.229 228.217H465.867C467.852 228.217 469.462 226.609 469.462 224.625V211.373C469.462 209.389 467.852 207.78 465.867 207.78Z" fill="white" stroke="#212121" stroke-linecap="round" stroke-linejoin="round"/>
<path d="M340.097 235.255H320.459C318.474 235.255 316.864 236.864 316.864 238.848V252.1C316.864 254.084 318.474 255.693 320.459 255.693H340.097C342.082 255.693 343.691 254.084 343.691 252.1V238.848C343.691 236.864 342.082 235.255 340.097 235.255Z" fill="white" stroke="#212121" stroke-linecap="round" stroke-linejoin="round"/>
<path d="M371.537 235.255H351.899C349.914 235.255 348.305 236.864 348.305 238.848V252.1C348.305 254.084 349.914 255.693 351.899 255.693H371.537C373.522 255.693 375.132 254.084 375.132 252.1V238.848C375.132 236.864 373.522 235.255 371.537 235.255Z" fill="white" stroke="#212121" stroke-linecap="round" stroke-linejoin="round"/>
<path d="M402.979 235.255H383.341C381.355 235.255 379.746 236.864 379.746 238.848V252.1C379.746 254.084 381.355 255.693 383.341 255.693H402.979C404.964 255.693 406.573 254.084 406.573 252.1V238.848C406.573 236.864 404.964 235.255 402.979 235.255Z" fill="white" stroke="#212121" stroke-linecap="round" stroke-linejoin="round"/>
<path d="M434.427 235.255H414.789C412.804 235.255 411.194 236.864 411.194 238.848V252.1C411.194 254.084 412.804 255.693 414.789 255.693H434.427C436.412 255.693 438.021 254.084 438.021 252.1V238.848C438.021 236.864 436.412 235.255 434.427 235.255Z" fill="white" stroke="#212121" stroke-linecap="round" stroke-linejoin="round"/>
<path d="M465.867 235.255H446.229C444.244 235.255 442.635 236.864 442.635 238.848V252.1C442.635 254.084 444.244 255.693 446.229 255.693H465.867C467.852 255.693 469.462 254.084 469.462 252.1V238.848C469.462 236.864 467.852 235.255 465.867 235.255Z" fill="white" stroke="#212121" stroke-linecap="round" stroke-linejoin="round"/>
<path d="M340.097 262.723H320.459C318.474 262.723 316.864 264.331 316.864 266.315V279.567C316.864 281.551 318.474 283.16 320.459 283.16H340.097C342.082 283.16 343.691 281.551 343.691 279.567V266.315C343.691 264.331 342.082 262.723 340.097 262.723Z" fill="white" stroke="#212121" stroke-linecap="round" stroke-linejoin="round"/>
<path d="M371.537 262.723H351.899C349.914 262.723 348.305 264.331 348.305 266.315V279.567C348.305 281.551 349.914 283.16 351.899 283.16H371.537C373.522 283.16 375.132 281.551 375.132 279.567V266.315C375.132 264.331 373.522 262.723 371.537 262.723Z" fill="white" stroke="#212121" stroke-linecap="round" stroke-linejoin="round"/>
<path d="M402.979 262.723H383.341C381.355 262.723 379.746 264.331 379.746 266.315V279.567C379.746 281.551 381.355 283.16 383.341 283.16H402.979C404.964 283.16 406.573 281.551 406.573 279.567V266.315C406.573 264.331 404.964 262.723 402.979 262.723Z" fill="white" stroke="#212121" stroke-linecap="round" stroke-linejoin="round"/>
<path d="M434.427 262.723H414.789C412.804 262.723 411.194 264.331 411.194 266.315V279.567C411.194 281.551 412.804 283.16 414.789 283.16H434.427C436.412 283.16 438.021 281.551 438.021 279.567V266.315C438.021 264.331 436.412 262.723 434.427 262.723Z" fill="white" stroke="#212121" stroke-linecap="round" stroke-linejoin="round"/>
<path d="M465.944 262.723H446.306C444.321 262.723 442.712 264.331 442.712 266.315V279.567C442.712 281.551 444.321 283.16 446.306 283.16H465.944C467.93 283.16 469.539 281.551 469.539 279.567V266.315C469.539 264.331 467.93 262.723 465.944 262.723Z" fill="white" stroke="#212121" stroke-linecap="round" stroke-linejoin="round"/>
<path d="M340.097 290.198H320.459C318.474 290.198 316.864 291.806 316.864 293.791V307.042C316.864 309.026 318.474 310.635 320.459 310.635H340.097C342.082 310.635 343.691 309.026 343.691 307.042V293.791C343.691 291.806 342.082 290.198 340.097 290.198Z" fill="white" stroke="#212121" stroke-linecap="round" stroke-linejoin="round"/>
<path d="M371.537 290.198H351.899C349.914 290.198 348.305 291.806 348.305 293.791V307.042C348.305 309.026 349.914 310.635 351.899 310.635H371.537C373.522 310.635 375.132 309.026 375.132 307.042V293.791C375.132 291.806 373.522 290.198 371.537 290.198Z" fill="#979797" stroke="#212121" stroke-linecap="round" stroke-linejoin="round"/>
<path d="M402.979 290.198H383.341C381.355 290.198 379.746 291.806 379.746 293.791V307.042C379.746 309.026 381.355 310.635 383.341 310.635H402.979C404.964 310.635 406.573 309.026 406.573 307.042V293.791C406.573 291.806 404.964 290.198 402.979 290.198Z" fill="#979797" stroke="#212121" stroke-linecap="round" stroke-linejoin="round"/>
<path d="M434.427 290.198H414.789C412.804 290.198 411.194 291.806 411.194 293.791V307.042C411.194 309.026 412.804 310.635 414.789 310.635H434.427C436.412 310.635 438.021 309.026 438.021 307.042V293.791C438.021 291.806 436.412 290.198 434.427 290.198Z" fill="#979797" stroke="#212121" stroke-linecap="round" stroke-linejoin="round"/>
<path d="M466.264 149.516H446.356C444.343 149.516 442.712 151.314 442.712 153.532V164.911C442.712 167.128 444.343 168.926 446.356 168.926H466.264C468.277 168.926 469.908 167.128 469.908 164.911V153.532C469.908 151.314 468.277 149.516 466.264 149.516Z" fill="white" stroke="#212121" stroke-linecap="round" stroke-linejoin="round"/>
<path d="M447.81 163.458C446.986 162.556 446.581 161.343 446.581 159.811C446.581 158.279 446.993 157.066 447.81 156.164C448.627 155.262 449.755 154.811 451.187 154.811C452.619 154.811 453.739 155.262 454.556 156.164C455.373 157.066 455.785 158.279 455.785 159.811C455.785 161.343 455.373 162.556 454.556 163.458C453.739 164.36 452.611 164.811 451.187 164.811C449.763 164.811 448.635 164.36 447.81 163.458ZM453.498 162.665C454.05 161.973 454.323 161.016 454.323 159.803C454.323 158.59 454.05 157.641 453.498 156.941C452.945 156.249 452.175 155.899 451.179 155.899C450.183 155.899 449.405 156.249 448.853 156.941C448.301 157.633 448.028 158.59 448.028 159.803C448.028 161.016 448.308 161.965 448.861 162.665C449.413 163.357 450.183 163.707 451.179 163.707C452.175 163.707 452.945 163.357 453.498 162.665Z" fill="#212121"/>
<path d="M457.995 164.5C457.871 164.392 457.809 164.244 457.809 164.057V155.822C457.809 155.549 457.879 155.339 458.026 155.176C458.174 155.021 458.361 154.943 458.579 154.943C458.734 154.943 458.906 154.99 459.069 155.075C459.24 155.168 459.388 155.301 459.505 155.479L464.453 162.688V155.549C464.453 155.363 464.515 155.207 464.64 155.106C464.764 154.997 464.912 154.943 465.091 154.943C465.262 154.943 465.402 154.997 465.535 155.106C465.659 155.215 465.721 155.363 465.721 155.549V163.785C465.721 164.049 465.643 164.267 465.48 164.423C465.317 164.578 465.122 164.664 464.889 164.664C464.733 164.664 464.578 164.625 464.43 164.547C464.274 164.469 464.15 164.36 464.049 164.213L459.077 157.004V164.057C459.077 164.244 459.015 164.399 458.89 164.5C458.766 164.609 458.61 164.664 458.439 164.664C458.268 164.664 458.12 164.609 457.995 164.5Z" fill="#212121"/>
<path d="M325.62 194.885C325.484 194.792 325.376 194.649 325.297 194.469L322.376 187.911V194.742C322.376 194.885 322.318 194.993 322.204 195.072C322.089 195.151 321.952 195.194 321.794 195.194C321.636 195.194 321.5 195.151 321.385 195.072C321.27 194.993 321.213 194.878 321.213 194.742V187.316C321.213 187.072 321.306 186.871 321.5 186.706C321.694 186.541 321.916 186.462 322.168 186.462C322.376 186.462 322.577 186.526 322.763 186.648C322.95 186.77 323.101 186.957 323.216 187.208L326.065 193.529L328.915 187.208C329.023 186.957 329.174 186.77 329.36 186.648C329.547 186.526 329.748 186.462 329.956 186.462C330.215 186.462 330.437 186.541 330.631 186.706C330.825 186.871 330.918 187.072 330.918 187.316V194.742C330.918 194.885 330.861 194.993 330.746 195.072C330.631 195.151 330.495 195.194 330.337 195.194C330.179 195.194 330.042 195.151 329.927 195.072C329.813 194.993 329.755 194.878 329.755 194.742V187.911L326.834 194.469C326.755 194.649 326.647 194.785 326.511 194.885C326.374 194.979 326.231 195.029 326.087 195.029C325.943 195.029 325.8 194.979 325.656 194.885H325.62Z" fill="#212121"/>
<path d="M334.716 194.784C334.077 194.375 333.602 193.83 333.286 193.141C332.97 192.453 332.812 191.678 332.812 190.817C332.812 190.171 332.914 189.568 333.108 189.001C333.302 188.435 333.574 187.947 333.933 187.523C334.285 187.1 334.737 186.77 335.276 186.526C335.814 186.282 336.41 186.16 337.07 186.16C337.881 186.16 338.635 186.354 339.339 186.741C339.525 186.842 339.618 186.985 339.618 187.172C339.618 187.308 339.576 187.423 339.482 187.523C339.389 187.624 339.281 187.674 339.152 187.674C339.087 187.674 339.023 187.66 338.944 187.624C338.929 187.617 338.879 187.588 338.793 187.545C338.707 187.502 338.635 187.466 338.585 187.444C338.527 187.423 338.449 187.387 338.334 187.351C338.219 187.308 338.11 187.279 338.01 187.258C337.909 187.236 337.774 187.215 337.616 187.201C337.458 187.186 337.3 187.179 337.128 187.179C336.719 187.179 336.352 187.244 336.022 187.366C335.692 187.488 335.412 187.667 335.19 187.889C334.96 188.112 334.773 188.377 334.615 188.679C334.457 188.987 334.35 189.31 334.278 189.669C334.206 190.02 334.17 190.393 334.17 190.795C334.17 191.197 334.206 191.563 334.278 191.914C334.35 192.266 334.464 192.596 334.615 192.897C334.773 193.199 334.96 193.464 335.19 193.68C335.419 193.895 335.698 194.067 336.036 194.196C336.373 194.325 336.747 194.383 337.164 194.383C337.537 194.383 337.86 194.332 338.14 194.232C338.42 194.132 338.721 193.995 339.052 193.809C339.138 193.766 339.217 193.737 339.288 193.737C339.418 193.737 339.531 193.787 339.618 193.88C339.711 193.974 339.755 194.089 339.755 194.218C339.755 194.411 339.647 194.576 339.439 194.706C338.743 195.165 337.917 195.387 336.97 195.387C336.108 195.387 335.362 195.186 334.73 194.77L334.716 194.784Z" fill="#212121"/>
<path d="M328.177 277.358C327.485 276.915 326.971 276.324 326.629 275.578C326.286 274.831 326.115 273.991 326.115 273.058C326.115 272.358 326.224 271.705 326.434 271.09C326.644 270.476 326.94 269.947 327.329 269.488C327.71 269.03 328.2 268.672 328.784 268.415C329.367 268.151 330.013 268.019 330.729 268.019C331.608 268.019 332.425 268.229 333.188 268.648C333.39 268.757 333.491 268.913 333.491 269.115C333.491 269.263 333.444 269.387 333.343 269.496C333.242 269.605 333.125 269.659 332.985 269.659C332.915 269.659 332.845 269.644 332.76 269.605C332.744 269.597 332.69 269.566 332.596 269.519C332.503 269.473 332.425 269.434 332.371 269.411C332.308 269.387 332.223 269.348 332.098 269.309C331.974 269.263 331.857 269.232 331.748 269.208C331.639 269.185 331.492 269.162 331.32 269.146C331.149 269.131 330.978 269.123 330.791 269.123C330.348 269.123 329.951 269.193 329.593 269.325C329.235 269.465 328.932 269.652 328.691 269.893C328.442 270.134 328.239 270.422 328.068 270.748C327.897 271.083 327.78 271.433 327.702 271.821C327.625 272.202 327.586 272.615 327.586 273.042C327.586 273.47 327.625 273.874 327.702 274.255C327.78 274.637 327.905 274.994 328.068 275.321C328.239 275.647 328.442 275.935 328.691 276.169C328.94 276.402 329.243 276.588 329.609 276.728C329.974 276.861 330.379 276.931 330.83 276.931C331.235 276.931 331.585 276.876 331.888 276.767C332.192 276.658 332.519 276.511 332.876 276.309C332.97 276.262 333.055 276.231 333.133 276.231C333.273 276.231 333.398 276.285 333.491 276.386C333.592 276.487 333.639 276.612 333.639 276.752C333.639 276.962 333.522 277.141 333.297 277.281C332.542 277.778 331.647 278.019 330.62 278.019C329.686 278.019 328.877 277.794 328.193 277.351L328.177 277.358Z" fill="#212121"/>
<path d="M324.673 218.428L324.806 218.588V218.567C325.22 218.985 325.764 219.194 326.419 219.194C327.147 219.194 327.737 218.937 328.173 218.412C328.606 217.891 328.821 217.244 328.821 216.475C328.821 216.133 328.773 215.807 328.677 215.489C328.582 215.17 328.438 214.882 328.255 214.62C328.067 214.351 327.808 214.141 327.496 213.982L327.495 213.981C327.18 213.828 326.818 213.748 326.419 213.748C325.69 213.748 325.108 214.013 324.673 214.537C324.248 215.058 324.033 215.69 324.033 216.475C324.033 217.259 324.248 217.914 324.673 218.428ZM327.53 215.578C327.605 215.834 327.644 216.138 327.644 216.475C327.644 216.811 327.605 217.115 327.53 217.379C327.456 217.638 327.323 217.852 327.131 218.029C326.944 218.202 326.706 218.289 326.419 218.289C326.133 218.289 325.903 218.202 325.715 218.029C325.523 217.852 325.39 217.638 325.316 217.379C325.241 217.115 325.203 216.811 325.203 216.475C325.203 216.138 325.241 215.842 325.316 215.578C325.39 215.327 325.523 215.113 325.715 214.936C325.902 214.77 326.133 214.683 326.419 214.683C326.708 214.683 326.945 214.764 327.131 214.935L327.132 214.937C327.323 215.105 327.456 215.318 327.53 215.578ZM326.47 223.832L326.491 223.852H326.502C326.596 223.921 326.705 223.961 326.824 223.961C327.007 223.961 327.153 223.852 327.255 223.666C327.255 223.665 327.255 223.665 327.255 223.665L332.553 214.326L332.556 214.321C332.611 214.202 332.649 214.089 332.649 214.002C332.649 213.873 332.602 213.76 332.51 213.669C332.419 213.577 332.307 213.53 332.184 213.53C331.988 213.53 331.833 213.636 331.722 213.832L326.409 223.226C326.343 223.333 326.313 223.424 326.313 223.505C326.313 223.64 326.373 223.744 326.47 223.832ZM331.216 222.93L331.349 223.091V223.071C331.764 223.496 332.308 223.704 332.97 223.704C333.451 223.704 333.878 223.576 334.249 223.326L334.25 223.325C334.619 223.069 334.893 222.739 335.077 222.33C335.261 221.923 335.356 221.469 335.356 220.97C335.356 220.628 335.308 220.302 335.213 219.984C335.117 219.674 334.982 219.386 334.798 219.122L334.796 219.12C334.603 218.863 334.353 218.645 334.038 218.491C333.723 218.338 333.362 218.258 332.97 218.258C332.242 218.258 331.66 218.515 331.224 219.04C330.791 219.56 330.577 220.192 330.577 220.977C330.577 221.761 330.791 222.417 331.216 222.93ZM333.674 222.524L333.672 222.526L333.666 222.532C333.479 222.697 333.248 222.784 332.963 222.784C332.676 222.784 332.438 222.696 332.251 222.524C332.059 222.347 331.926 222.133 331.852 221.874C331.777 221.618 331.738 221.314 331.738 220.977C331.738 220.641 331.776 220.345 331.852 220.08C331.926 219.821 332.059 219.608 332.251 219.43C332.438 219.258 332.668 219.17 332.963 219.17C333.184 219.17 333.373 219.222 333.531 219.315C333.69 219.409 333.821 219.547 333.908 219.713L333.909 219.716C334.006 219.887 334.073 220.074 334.119 220.285C334.164 220.497 334.187 220.725 334.187 220.977C334.187 221.322 334.149 221.618 334.073 221.882C333.999 222.133 333.866 222.347 333.674 222.524Z" fill="#212121" stroke="#212121" stroke-width="0.15"/>
<path d="M360.45 223.233C360.31 223.116 360.24 222.961 360.24 222.782C360.24 222.704 360.264 222.603 360.31 222.486L363.64 214.842H359.159C358.98 214.842 358.848 214.787 358.754 214.678C358.661 214.569 358.614 214.445 358.614 214.297C358.614 214.15 358.661 214.025 358.754 213.916C358.848 213.807 358.988 213.753 359.159 213.753H364.372C364.621 213.753 364.807 213.807 364.94 213.924C365.072 214.041 365.134 214.196 365.134 214.391C365.134 214.585 365.095 214.787 365.01 214.974L361.524 223.031C361.415 223.287 361.221 223.412 360.941 223.412C360.754 223.412 360.59 223.349 360.45 223.233Z" fill="#212121"/>
<path d="M391.69 223.248C391.192 223.038 390.787 222.727 390.491 222.307C390.196 221.887 390.048 221.39 390.048 220.814C390.048 220.2 390.219 219.679 390.554 219.236C390.888 218.792 391.363 218.512 391.985 218.38C391.394 218.24 390.95 217.976 390.655 217.579C390.359 217.19 390.211 216.708 390.211 216.148C390.211 215.588 390.359 215.122 390.647 214.717C390.935 214.321 391.324 214.025 391.798 213.831C392.273 213.644 392.81 213.543 393.409 213.543C393.86 213.543 394.273 213.597 394.662 213.706C395.051 213.815 395.385 213.978 395.681 214.188C395.977 214.398 396.202 214.671 396.373 215.005C396.545 215.339 396.622 215.713 396.622 216.133C396.622 216.7 396.474 217.182 396.163 217.571C395.86 217.96 395.424 218.225 394.856 218.357C395.494 218.528 395.969 218.823 396.288 219.236C396.607 219.648 396.77 220.169 396.77 220.791C396.77 221.366 396.622 221.864 396.319 222.284C396.015 222.704 395.619 223.023 395.121 223.225C394.623 223.435 394.047 223.536 393.401 223.536C392.755 223.536 392.195 223.435 391.69 223.225V223.248ZM394.833 222.097C395.206 221.817 395.393 221.39 395.393 220.814C395.393 220.239 395.206 219.764 394.825 219.445C394.452 219.127 393.977 218.963 393.401 218.963C392.825 218.963 392.351 219.127 391.97 219.445C391.588 219.764 391.402 220.223 391.402 220.814C391.402 221.203 391.495 221.522 391.682 221.786C391.868 222.051 392.11 222.237 392.398 222.354C392.693 222.471 393.028 222.525 393.401 222.525C393.985 222.525 394.459 222.385 394.833 222.097ZM394.802 217.33C395.136 217.05 395.307 216.646 395.307 216.117C395.307 215.588 395.128 215.176 394.763 214.919C394.397 214.663 393.946 214.531 393.401 214.531C393.144 214.531 392.911 214.562 392.693 214.616C392.475 214.678 392.273 214.764 392.086 214.881C391.9 214.997 391.76 215.168 391.651 215.378C391.549 215.588 391.495 215.829 391.495 216.109C391.495 216.638 391.666 217.042 392.009 217.322C392.351 217.602 392.81 217.742 393.401 217.742C393.993 217.742 394.459 217.602 394.802 217.322V217.33Z" fill="#212121"/>
<path d="M421.372 223.062C421.201 222.976 421.123 222.836 421.123 222.634C421.123 222.478 421.17 222.338 421.271 222.206C421.372 222.074 421.489 222.012 421.621 222.012C421.667 222.012 421.73 222.027 421.792 222.051C422.375 222.323 422.951 222.455 423.504 222.455C423.807 222.455 424.079 222.416 424.328 222.346C424.57 222.276 424.78 222.183 424.959 222.058C425.13 221.934 425.285 221.779 425.418 221.592C425.55 221.405 425.651 221.203 425.729 220.985C425.807 220.775 425.869 220.526 425.916 220.239C425.962 219.951 425.993 219.671 426.009 219.391C426.025 219.111 426.032 218.8 426.032 218.45C425.923 218.816 425.651 219.142 425.215 219.422C424.78 219.702 424.266 219.85 423.675 219.85C422.741 219.85 421.994 219.554 421.434 218.987C420.874 218.419 420.594 217.672 420.594 216.755C420.594 215.837 420.889 215.044 421.481 214.445C422.072 213.846 422.866 213.543 423.862 213.543C424.398 213.543 424.873 213.621 425.293 213.784C425.713 213.947 426.048 214.165 426.32 214.43C426.585 214.702 426.803 215.028 426.974 215.417C427.145 215.806 427.269 216.203 427.339 216.615C427.409 217.027 427.448 217.478 427.448 217.96C427.448 218.357 427.433 218.722 427.409 219.064C427.386 219.407 427.332 219.772 427.262 220.161C427.184 220.55 427.09 220.9 426.974 221.211C426.857 221.522 426.694 221.833 426.491 222.128C426.281 222.432 426.048 222.681 425.776 222.883C425.503 223.085 425.176 223.248 424.787 223.365C424.398 223.482 423.963 223.544 423.48 223.544C422.765 223.544 422.064 223.373 421.38 223.038L421.372 223.062ZM425.371 218.302C425.737 217.913 425.923 217.392 425.923 216.731C425.923 216.133 425.752 215.635 425.402 215.231C425.052 214.826 424.57 214.632 423.939 214.632C423.309 214.632 422.788 214.826 422.438 215.207C422.088 215.588 421.916 216.109 421.916 216.755C421.916 217.4 422.072 217.89 422.391 218.295C422.702 218.691 423.177 218.893 423.799 218.893C424.476 218.893 424.997 218.699 425.371 218.31V218.302Z" fill="#212121"/>
<path d="M362.343 250.102C362.21 249.993 362.14 249.845 362.14 249.65V248.15H358.266C358.056 248.15 357.884 248.08 357.76 247.94C357.635 247.8 357.565 247.636 357.565 247.442C357.565 247.294 357.612 247.154 357.698 247.022L361.409 241.189C361.681 240.762 362.055 240.544 362.514 240.544C362.786 240.544 363.012 240.622 363.191 240.785C363.37 240.941 363.463 241.182 363.463 241.493V247.162H364.451C364.607 247.162 364.731 247.209 364.817 247.31C364.902 247.411 364.949 247.527 364.949 247.66C364.949 247.792 364.902 247.908 364.817 248.01C364.731 248.111 364.607 248.157 364.451 248.157H363.455V249.658C363.455 249.845 363.393 250 363.261 250.109C363.128 250.218 362.981 250.273 362.802 250.273C362.623 250.273 362.475 250.218 362.343 250.109V250.102ZM362.14 247.162V241.944L358.888 247.162H362.14Z" fill="#212121"/>
<path d="M391.954 250.132C391.495 249.954 391.059 249.681 390.647 249.316C390.554 249.238 390.507 249.145 390.507 249.02C390.507 248.873 390.569 248.733 390.694 248.593C390.818 248.46 390.95 248.39 391.09 248.39C391.176 248.39 391.254 248.422 391.332 248.476C391.954 249.02 392.678 249.292 393.495 249.292C394.164 249.292 394.677 249.106 395.019 248.74C395.362 248.375 395.533 247.862 395.533 247.201C395.533 246.602 395.362 246.112 395.019 245.746C394.677 245.373 394.226 245.194 393.666 245.194C393.3 245.194 392.942 245.28 392.584 245.443C392.226 245.606 391.946 245.816 391.736 246.073C391.689 246.127 391.596 246.151 391.472 246.151C391.285 246.151 391.098 246.104 390.911 246.003C390.725 245.902 390.631 245.785 390.631 245.653V241.213C390.631 240.808 390.849 240.598 391.293 240.598H395.751C395.906 240.598 396.031 240.653 396.124 240.754C396.21 240.855 396.257 240.979 396.257 241.119C396.257 241.259 396.21 241.376 396.124 241.477C396.039 241.578 395.914 241.625 395.751 241.625H391.721V244.906L391.798 244.821C391.845 244.766 391.931 244.704 392.047 244.626C392.164 244.549 392.296 244.471 392.452 244.401C392.608 244.323 392.81 244.261 393.059 244.207C393.308 244.152 393.565 244.121 393.837 244.121C394.739 244.121 395.471 244.409 396.015 244.992C396.56 245.567 396.832 246.314 396.832 247.232C396.832 248.149 396.529 248.95 395.914 249.526C395.3 250.101 394.506 250.389 393.533 250.389C392.934 250.389 392.405 250.296 391.946 250.117L391.954 250.132Z" fill="#212121"/>
<path d="M422.78 250.163C422.368 250 422.025 249.782 421.761 249.51C421.496 249.238 421.279 248.911 421.107 248.523C420.936 248.142 420.812 247.737 420.742 247.325C420.672 246.913 420.633 246.462 420.633 245.98C420.633 245.583 420.648 245.218 420.672 244.875C420.695 244.533 420.75 244.168 420.82 243.779C420.897 243.39 420.991 243.04 421.107 242.721C421.224 242.41 421.388 242.099 421.59 241.804C421.8 241.508 422.033 241.251 422.306 241.049C422.578 240.847 422.905 240.684 423.294 240.567C423.683 240.45 424.118 240.388 424.601 240.388C425.317 240.388 426.017 240.559 426.702 240.894C426.873 240.971 426.951 241.119 426.951 241.321C426.951 241.477 426.904 241.617 426.803 241.749C426.702 241.881 426.585 241.944 426.453 241.944C426.406 241.944 426.344 241.928 426.281 241.905C425.69 241.632 425.122 241.5 424.57 241.5C424.266 241.5 423.994 241.531 423.745 241.601C423.504 241.671 423.294 241.765 423.115 241.889C422.944 242.014 422.788 242.169 422.656 242.356C422.523 242.542 422.422 242.745 422.344 242.962C422.267 243.172 422.204 243.429 422.158 243.709C422.111 243.997 422.08 244.277 422.064 244.556C422.049 244.836 422.041 245.148 422.041 245.497C422.142 245.132 422.415 244.805 422.85 244.518C423.286 244.238 423.799 244.09 424.391 244.09C425.324 244.09 426.071 244.385 426.632 244.953C427.192 245.521 427.472 246.267 427.472 247.185C427.472 248.103 427.176 248.888 426.577 249.487C425.986 250.093 425.184 250.389 424.188 250.389C423.652 250.389 423.177 250.311 422.765 250.148L422.78 250.163ZM422.702 245.661C422.329 246.05 422.142 246.571 422.142 247.232C422.142 247.83 422.313 248.328 422.663 248.733C423.014 249.137 423.504 249.331 424.134 249.331C424.764 249.331 425.278 249.137 425.628 248.756C425.978 248.375 426.149 247.862 426.149 247.208C426.149 246.555 425.994 246.073 425.675 245.669C425.363 245.272 424.889 245.07 424.266 245.07C423.589 245.07 423.068 245.264 422.695 245.653L422.702 245.661Z" fill="#212121"/>
<path d="M361.968 278.237C361.835 278.128 361.765 277.965 361.765 277.763V270.126L360.295 271.075C360.209 271.122 360.124 271.153 360.03 271.153C359.898 271.153 359.781 271.106 359.68 271.005C359.579 270.904 359.532 270.787 359.532 270.655C359.532 270.5 359.61 270.367 359.766 270.258L362.1 268.804C362.201 268.734 362.325 268.703 362.473 268.703C362.652 268.703 362.808 268.758 362.932 268.874C363.057 268.991 363.119 269.154 363.119 269.364V277.763C363.119 277.965 363.057 278.128 362.924 278.237C362.784 278.354 362.629 278.408 362.442 278.408C362.255 278.408 362.1 278.354 361.968 278.237Z" fill="#212121"/>
<path d="M396.117 272.848C395.868 273.323 395.455 273.82 394.88 274.349L391.775 277.374H395.868C396.039 277.374 396.163 277.429 396.265 277.53C396.358 277.631 396.405 277.755 396.405 277.895C396.405 278.035 396.358 278.16 396.265 278.261C396.171 278.362 396.039 278.416 395.868 278.416H391.192C390.927 278.416 390.709 278.346 390.546 278.214C390.382 278.082 390.305 277.911 390.305 277.716C390.305 277.483 390.414 277.265 390.624 277.048L394.164 273.463C394.529 273.089 394.802 272.739 394.973 272.428C395.144 272.117 395.23 271.798 395.23 271.48C395.23 270.943 395.059 270.515 394.708 270.181C394.358 269.854 393.938 269.691 393.432 269.691C393.137 269.691 392.857 269.714 392.6 269.769C392.343 269.823 392.164 269.87 392.055 269.916C391.946 269.963 391.791 270.049 391.581 270.173C391.371 270.297 391.246 270.375 391.199 270.399C391.137 270.43 391.067 270.445 391.005 270.445C390.865 270.445 390.74 270.391 390.624 270.274C390.515 270.157 390.46 270.025 390.46 269.885C390.46 269.714 390.546 269.574 390.725 269.465C391.176 269.193 391.604 268.983 392.016 268.843C392.429 268.703 392.934 268.625 393.526 268.625C394.382 268.625 395.09 268.89 395.65 269.419C396.218 269.948 396.498 270.593 396.498 271.355C396.498 271.884 396.373 272.382 396.124 272.848H396.117Z" fill="#212121"/>
<path d="M421.559 278.05C421.325 277.926 421.208 277.755 421.208 277.545C421.208 277.397 421.263 277.265 421.364 277.148C421.465 277.032 421.59 276.977 421.73 276.977C421.776 276.977 421.831 276.985 421.901 277.008C422.547 277.312 423.177 277.459 423.768 277.459C424.36 277.459 424.857 277.319 425.231 277.04C425.604 276.76 425.791 276.363 425.791 275.85C425.791 275.259 425.573 274.784 425.145 274.427C424.717 274.077 424.165 273.898 423.496 273.898H422.998C422.842 273.898 422.726 273.851 422.64 273.758C422.554 273.664 422.516 273.548 422.516 273.408C422.516 273.268 422.554 273.143 422.64 273.05C422.726 272.949 422.842 272.902 422.998 272.902H423.441C424.079 272.902 424.585 272.762 424.966 272.467C425.348 272.179 425.542 271.759 425.542 271.215C425.542 270.717 425.363 270.336 425.021 270.064C424.671 269.792 424.243 269.659 423.737 269.659C423.029 269.659 422.368 269.815 421.753 270.118C421.706 270.142 421.652 270.149 421.59 270.149C421.457 270.149 421.333 270.087 421.232 269.955C421.131 269.823 421.076 269.683 421.076 269.527C421.076 269.348 421.154 269.216 421.302 269.131C421.512 268.998 421.862 268.866 422.344 268.742C422.827 268.617 423.301 268.547 423.76 268.547C424.352 268.547 424.889 268.641 425.355 268.827C425.822 269.014 426.203 269.309 426.491 269.714C426.779 270.118 426.927 270.608 426.927 271.176C426.927 271.744 426.779 272.171 426.476 272.537C426.172 272.902 425.776 273.167 425.285 273.33C425.869 273.478 426.32 273.773 426.663 274.217C426.997 274.66 427.168 275.204 427.168 275.834C427.168 276.293 427.075 276.697 426.896 277.055C426.709 277.413 426.46 277.701 426.149 277.911C425.83 278.12 425.48 278.284 425.091 278.393C424.702 278.502 424.289 278.556 423.846 278.556C422.975 278.556 422.22 278.385 421.574 278.043L421.559 278.05Z" fill="#212121"/>
<path d="M455.077 188.438C454.766 188.127 454.618 187.762 454.618 187.342C454.618 186.922 454.774 186.579 455.077 186.276C455.388 185.965 455.793 185.817 456.291 185.817C456.789 185.817 457.186 185.965 457.497 186.268C457.808 186.572 457.964 186.929 457.964 187.342C457.964 187.754 457.808 188.127 457.505 188.438C457.201 188.749 456.789 188.897 456.291 188.897C455.793 188.897 455.388 188.741 455.077 188.438Z" fill="#212121"/>
<path d="M455.077 195.542C454.766 195.231 454.618 194.865 454.618 194.445C454.618 194.025 454.774 193.683 455.077 193.38C455.381 193.076 455.793 192.921 456.291 192.921C456.789 192.921 457.186 193.069 457.497 193.372C457.808 193.675 457.964 194.033 457.964 194.445C457.964 194.857 457.808 195.231 457.505 195.542C457.193 195.853 456.789 196 456.291 196C455.793 196 455.388 195.845 455.077 195.542Z" fill="#212121"/>
<path d="M455.52 219.477L452.805 223.124C452.649 223.326 452.47 223.427 452.26 223.427C452.105 223.427 451.965 223.373 451.84 223.256C451.723 223.14 451.661 223.007 451.661 222.852C451.661 222.72 451.708 222.595 451.801 222.479L454.82 218.528L451.98 214.663C451.91 214.578 451.879 214.476 451.879 214.368C451.879 214.196 451.949 214.049 452.097 213.909C452.237 213.777 452.4 213.707 452.587 213.707C452.789 213.707 452.968 213.808 453.108 214.002L455.699 217.533L458.329 214.018C458.485 213.808 458.679 213.707 458.897 213.707C459.053 213.707 459.185 213.761 459.294 213.862C459.403 213.963 459.457 214.088 459.457 214.235C459.457 214.36 459.418 214.476 459.333 214.585L456.407 218.505L459.309 222.471C459.387 222.588 459.434 222.696 459.434 222.821C459.434 222.992 459.364 223.132 459.216 223.249C459.068 223.365 458.913 223.427 458.734 223.427C458.523 223.427 458.352 223.342 458.228 223.163L455.528 219.492L455.52 219.477Z" fill="#212121"/>
<path d="M455.261 278.363C455.117 278.208 455.049 278.015 455.049 277.776V274.05H451.305C451.08 274.05 450.887 273.979 450.725 273.831C450.563 273.683 450.482 273.502 450.482 273.277C450.482 273.051 450.563 272.864 450.719 272.722C450.875 272.58 451.068 272.509 451.305 272.509H455.049V268.751C455.049 268.519 455.117 268.326 455.261 268.164C455.404 268.003 455.591 267.919 455.815 267.919C456.039 267.919 456.22 267.997 456.37 268.158C456.513 268.313 456.588 268.513 456.588 268.751V272.509H460.344C460.569 272.509 460.762 272.58 460.924 272.722C461.086 272.864 461.167 273.045 461.167 273.277C461.167 273.509 461.086 273.683 460.93 273.831C460.768 273.979 460.575 274.05 460.344 274.05H456.588V277.776C456.588 277.996 456.513 278.189 456.37 278.35C456.226 278.511 456.039 278.595 455.815 278.595C455.591 278.595 455.398 278.518 455.261 278.363Z" fill="#212121"/>
<path d="M325.369 249.137C325.237 249.005 325.174 248.834 325.174 248.624V245.35H321.766C321.564 245.35 321.393 245.288 321.245 245.155C321.097 245.023 321.02 244.868 321.02 244.665C321.02 244.463 321.09 244.3 321.23 244.175C321.37 244.051 321.549 243.989 321.766 243.989H325.174V240.691C325.174 240.489 325.237 240.318 325.369 240.178C325.501 240.038 325.664 239.968 325.875 239.968C326.085 239.968 326.24 240.038 326.372 240.178C326.505 240.318 326.567 240.489 326.567 240.699V243.997H329.983C330.185 243.997 330.356 244.059 330.504 244.183C330.652 244.308 330.722 244.471 330.722 244.673C330.722 244.875 330.652 245.031 330.504 245.163C330.356 245.295 330.185 245.358 329.975 245.358H326.559V248.631C326.559 248.826 326.497 248.997 326.365 249.137C326.232 249.277 326.069 249.347 325.867 249.347C325.664 249.347 325.493 249.277 325.361 249.145L325.369 249.137Z" fill="#212121"/>
<path d="M450.743 246.361C450.603 246.26 450.533 246.135 450.533 245.987C450.533 245.84 450.603 245.723 450.743 245.622C450.883 245.521 451.078 245.466 451.327 245.466H460.663C460.912 245.466 461.107 245.521 461.247 245.622C461.387 245.731 461.457 245.855 461.457 245.995C461.457 246.135 461.387 246.26 461.247 246.361C461.107 246.462 460.912 246.516 460.663 246.516H451.327C451.078 246.516 450.883 246.462 450.743 246.361Z" fill="#212121"/>
<path d="M332.223 250.98C332.13 250.879 332.083 250.754 332.083 250.606C332.083 250.459 332.13 250.342 332.223 250.241C332.316 250.14 332.449 250.085 332.62 250.085H338.93C339.101 250.085 339.233 250.14 339.327 250.241C339.42 250.35 339.467 250.474 339.467 250.614C339.467 250.754 339.42 250.879 339.327 250.98C339.233 251.081 339.101 251.135 338.93 251.135H332.62C332.449 251.135 332.316 251.081 332.223 250.98Z" fill="white"/>
<path d="M328.598 252.854C328.403 252.979 328.248 253.01 328.123 252.94C327.999 252.87 327.952 252.714 327.96 252.489C327.975 252.255 328.077 251.983 328.263 251.657L335.219 239.626C335.406 239.299 335.6 239.082 335.795 238.949C335.989 238.825 336.153 238.794 336.269 238.864C336.394 238.934 336.448 239.082 336.425 239.315C336.409 239.548 336.308 239.82 336.122 240.147L329.166 252.178C328.979 252.496 328.792 252.722 328.598 252.854Z" fill="#212121"/>
<path d="M450.743 191.348C450.603 191.247 450.533 191.122 450.533 190.975C450.533 190.827 450.603 190.71 450.743 190.609C450.883 190.508 451.078 190.454 451.327 190.454H460.663C460.912 190.454 461.107 190.508 461.247 190.609C461.387 190.718 461.457 190.842 461.457 190.982C461.457 191.122 461.387 191.247 461.247 191.348C461.107 191.449 460.912 191.503 460.663 191.503H451.327C451.078 191.503 450.883 191.449 450.743 191.348Z" fill="#212121"/>
<path d="M356.88 195.129C356.736 195.031 356.622 194.879 356.538 194.689L353.443 187.741V194.977C353.443 195.129 353.382 195.243 353.26 195.327C353.139 195.411 352.994 195.456 352.827 195.456C352.66 195.456 352.515 195.411 352.393 195.327C352.272 195.243 352.211 195.122 352.211 194.977V187.111C352.211 186.852 352.31 186.639 352.515 186.465C352.72 186.29 352.956 186.206 353.222 186.206C353.443 186.206 353.656 186.274 353.853 186.404C354.051 186.533 354.211 186.731 354.333 186.997L357.352 193.693L360.37 186.997C360.485 186.731 360.644 186.533 360.842 186.404C361.04 186.274 361.253 186.206 361.473 186.206C361.747 186.206 361.983 186.29 362.188 186.465C362.393 186.639 362.492 186.852 362.492 187.111V194.977C362.492 195.129 362.431 195.243 362.31 195.327C362.188 195.411 362.043 195.456 361.876 195.456C361.709 195.456 361.564 195.411 361.443 195.327C361.321 195.243 361.26 195.122 361.26 194.977V187.741L358.165 194.689C358.082 194.879 357.967 195.023 357.823 195.129C357.679 195.228 357.526 195.281 357.374 195.281C357.222 195.281 357.07 195.228 356.918 195.129H356.88Z" fill="#212121"/>
<path d="M365.055 195.357C364.926 195.243 364.857 195.091 364.857 194.886V186.685C364.857 186.502 364.926 186.35 365.055 186.221C365.184 186.092 365.344 186.031 365.534 186.031H368.416C368.781 186.031 369.116 186.054 369.42 186.084C369.724 186.122 370.028 186.191 370.333 186.297C370.637 186.404 370.895 186.54 371.101 186.715C371.306 186.89 371.481 187.118 371.61 187.407C371.739 187.696 371.808 188.03 371.808 188.41C371.808 188.958 371.641 189.429 371.306 189.816C370.971 190.204 370.469 190.455 369.808 190.584V190.607C370.85 190.835 371.435 191.542 371.572 192.743L371.808 194.833C371.808 194.833 371.808 194.886 371.808 194.924C371.808 195.099 371.747 195.243 371.625 195.357C371.504 195.471 371.352 195.525 371.177 195.525C371.002 195.525 370.842 195.471 370.698 195.365C370.553 195.259 370.469 195.114 370.454 194.924L370.249 193.07C370.203 192.667 370.15 192.355 370.089 192.127C370.028 191.899 369.93 191.717 369.785 191.565C369.648 191.413 369.473 191.314 369.26 191.261C369.055 191.207 368.774 191.185 368.416 191.185H366.196V194.886C366.196 195.091 366.127 195.243 365.99 195.357C365.854 195.471 365.694 195.525 365.519 195.525C365.344 195.525 365.184 195.471 365.048 195.357H365.055ZM368.135 190.158C368.393 190.158 368.629 190.143 368.835 190.128C369.04 190.105 369.245 190.06 369.458 189.999C369.671 189.93 369.846 189.839 369.99 189.725C370.127 189.611 370.241 189.452 370.333 189.254C370.424 189.056 370.469 188.821 370.469 188.555C370.469 188.334 370.439 188.137 370.378 187.969C370.317 187.802 370.234 187.665 370.112 187.567C369.998 187.468 369.876 187.384 369.747 187.316C369.618 187.255 369.466 187.202 369.283 187.179C369.101 187.149 368.941 187.133 368.804 187.118C368.667 187.111 368.5 187.103 368.31 187.103H366.196V190.158H368.127H368.135Z" fill="#212121"/>
<path d="M390.529 195.229C390.381 195.128 390.265 194.973 390.179 194.778L387.012 187.671V195.074C387.012 195.229 386.95 195.346 386.826 195.432C386.701 195.517 386.553 195.564 386.382 195.564C386.211 195.564 386.063 195.517 385.939 195.432C385.814 195.346 385.752 195.222 385.752 195.074V187.025C385.752 186.761 385.853 186.543 386.063 186.364C386.273 186.185 386.514 186.1 386.787 186.1C387.012 186.1 387.23 186.17 387.433 186.302C387.635 186.434 387.798 186.636 387.923 186.908L391.012 193.76L394.1 186.908C394.217 186.636 394.38 186.434 394.583 186.302C394.785 186.17 395.003 186.1 395.229 186.1C395.509 186.1 395.75 186.185 395.96 186.364C396.17 186.543 396.271 186.761 396.271 187.025V195.074C396.271 195.229 396.209 195.346 396.084 195.432C395.96 195.517 395.812 195.564 395.641 195.564C395.47 195.564 395.322 195.517 395.197 195.432C395.073 195.346 395.011 195.222 395.011 195.074V187.671L391.844 194.778C391.758 194.973 391.642 195.121 391.494 195.229C391.346 195.331 391.19 195.385 391.035 195.385C390.879 195.385 390.724 195.331 390.576 195.229H390.529Z" fill="#212121"/>
<path d="M397.906 192.391C397.804 192.305 397.75 192.196 397.75 192.056C397.75 191.909 397.797 191.792 397.898 191.706C397.999 191.621 398.131 191.574 398.295 191.574H401.321C401.485 191.574 401.617 191.621 401.718 191.706C401.819 191.792 401.866 191.909 401.866 192.056C401.866 192.189 401.811 192.305 401.71 192.391C401.609 192.476 401.477 192.523 401.321 192.523H398.295C398.139 192.523 398.007 192.476 397.906 192.391Z" fill="#212121"/>
<path d="M420.548 195.229C420.4 195.128 420.283 194.973 420.198 194.778L417.031 187.671V195.074C417.031 195.229 416.969 195.346 416.844 195.432C416.72 195.517 416.572 195.564 416.401 195.564C416.23 195.564 416.082 195.517 415.957 195.432C415.833 195.346 415.771 195.222 415.771 195.074V187.025C415.771 186.761 415.872 186.543 416.082 186.364C416.292 186.185 416.533 186.1 416.805 186.1C417.031 186.1 417.249 186.17 417.451 186.302C417.653 186.434 417.817 186.636 417.941 186.908L421.03 193.76L424.119 186.908C424.236 186.636 424.4 186.434 424.602 186.302C424.805 186.17 425.021 186.1 425.247 186.1C425.527 186.1 425.768 186.185 425.978 186.364C426.189 186.543 426.29 186.761 426.29 187.025V195.074C426.29 195.229 426.227 195.346 426.103 195.432C425.978 195.517 425.831 195.564 425.659 195.564C425.488 195.564 425.34 195.517 425.216 195.432C425.091 195.346 425.029 195.222 425.029 195.074V187.671L421.863 194.778C421.777 194.973 421.66 195.121 421.512 195.229C421.365 195.331 421.209 195.385 421.053 195.385C420.898 195.385 420.742 195.331 420.587 195.229H420.548Z" fill="#212121"/>
<path d="M431.674 195.463C431.58 195.362 431.534 195.245 431.534 195.09V192.741H429.083C428.935 192.741 428.81 192.694 428.701 192.601C428.593 192.508 428.538 192.391 428.538 192.251C428.538 192.111 428.593 191.987 428.694 191.901C428.795 191.816 428.927 191.769 429.075 191.769H431.526V189.397C431.526 189.249 431.572 189.125 431.666 189.024C431.759 188.923 431.884 188.868 432.031 188.868C432.179 188.868 432.296 188.915 432.389 189.016C432.483 189.117 432.529 189.241 432.529 189.389V191.761H434.988C435.136 191.761 435.26 191.808 435.369 191.893C435.478 191.979 435.533 192.095 435.533 192.243C435.533 192.391 435.478 192.5 435.377 192.593C435.276 192.687 435.144 192.733 434.996 192.733H432.537V195.082C432.537 195.222 432.491 195.346 432.397 195.447C432.304 195.548 432.179 195.603 432.039 195.603C431.899 195.603 431.767 195.556 431.674 195.455V195.463Z" fill="#212121"/>
<path d="M419.007 157.743L422.905 162.938L427.239 155.146H431.572" stroke="#212121" stroke-width="1.4" stroke-linecap="round" stroke-linejoin="round"/>
<path d="M343.539 113.596V103.888L344.287 103.14L346.533 105.384V112.478L343.548 113.596H343.539ZM357.733 116.209H345.406C344.408 115.96 343.789 115.341 343.539 114.344L346.524 113.226H356.615L357.733 116.209ZM355.488 92.3151H346.558L343.573 91.1973C343.823 90.2 344.442 89.5809 345.44 89.3315H356.606L355.488 92.3151ZM356.236 101.274L357.733 102.77L356.236 104.267H346.524L345.027 102.77L346.524 101.274H356.236ZM356.236 100.157V92.3151L357.354 89.3315C358.352 89.5809 358.972 90.2 359.221 91.1973V101.653L358.473 102.401L356.227 100.157H356.236Z" fill="#212121"/>
<path d="M365.957 93.0633V100.157L363.711 102.401L362.963 101.653V91.9456L365.948 93.0633H365.957ZM362.972 113.604V103.897L363.72 103.149L365.965 105.393V112.487L362.98 113.604H362.972ZM376.047 116.218H364.838C363.84 115.969 363.221 115.35 362.972 114.352L365.957 113.235H374.92L376.038 116.218H376.047ZM376.047 92.3239H366L363.015 91.2061C363.264 90.2087 363.883 89.5897 364.881 89.3403H377.174L376.056 92.3239H376.047ZM375.677 101.283L377.174 102.779L375.677 104.275H365.965L364.468 102.779L365.965 101.283H375.677ZM377.922 103.149L378.671 103.897V114.352C378.421 115.35 377.802 115.969 376.804 116.218L375.686 113.235V105.393L377.931 103.149H377.922Z" fill="#212121"/>
<path d="M395.471 116.209H384.262C383.264 115.96 382.645 115.341 382.396 114.344L385.38 113.226H394.344L395.462 116.209H395.471ZM394.353 92.3151H385.424L382.439 91.1973C382.688 90.2 383.307 89.5809 384.305 89.3315H395.471L394.353 92.3151ZM395.102 101.274L396.598 102.77L395.102 104.267H385.389L383.892 102.77L385.389 101.274H395.102ZM395.102 100.157V92.3151L396.219 89.3315C397.217 89.5809 397.837 90.2 398.086 91.1973V101.653L397.339 102.401L395.092 100.157H395.102ZM397.346 103.14L398.095 103.888V114.344C397.845 115.341 397.226 115.96 396.228 116.209L395.11 113.226V105.384L397.355 103.14H397.346Z" fill="#212121"/>
<path d="M404.805 91.9368V100.148L402.56 102.392L401.812 101.644V90.819L404.797 91.9368H404.805ZM414.517 101.274L416.014 102.77L414.517 104.267H404.805L403.309 102.77L404.805 101.274H414.517ZM414.517 100.157V92.3151L415.635 89.3315C416.633 89.5809 417.254 90.2 417.503 91.1973V101.653L416.754 102.401L414.509 100.157H414.517ZM416.762 103.14L417.511 103.888V114.344C417.261 115.341 416.643 115.96 415.645 116.209L414.526 113.226V105.384L416.771 103.14H416.762Z" fill="#212121"/>
<path d="M424.237 116.21H421.252V113.226H424.237V116.21Z" fill="#212121"/>
<path d="M430.956 93.0633V100.157L428.71 102.401L427.962 101.653V91.9456L430.947 93.0633H430.956ZM427.971 113.604V103.897L428.719 103.149L430.964 105.393V112.487L427.979 113.604H427.971ZM441.046 116.218H429.837C428.839 115.969 428.22 115.35 427.971 114.352L430.956 113.235H439.919L441.037 116.218H441.046ZM439.928 92.3239H430.999L428.014 91.2061C428.263 90.2087 428.882 89.5897 429.88 89.3403H441.046L439.928 92.3239ZM440.676 100.165V92.3239L441.794 89.3403C442.792 89.5897 443.412 90.2087 443.661 91.2061V101.661L442.913 102.41L440.668 100.165H440.676ZM442.921 103.149L443.67 103.897V114.352C443.42 115.35 442.801 115.969 441.803 116.218L440.685 113.235V105.393L442.93 103.149H442.921Z" fill="#212121"/>
<path d="M450.379 93.0633V100.157L448.134 102.401L447.386 101.653V91.9456L450.371 93.0633H450.379ZM447.394 113.604V103.897L448.143 103.149L450.388 105.393V112.487L447.403 113.604H447.394ZM460.47 116.218H449.261C448.263 115.969 447.644 115.35 447.394 114.352L450.379 113.235H459.343L460.461 116.218H460.47ZM459.352 92.3239H450.422L447.437 91.2061C447.687 90.2087 448.306 89.5897 449.304 89.3403H460.47L459.352 92.3239ZM460.1 100.165V92.3239L461.218 89.3403C462.216 89.5897 462.835 90.2087 463.085 91.2061V101.661L462.337 102.41L460.091 100.165H460.1ZM462.345 103.149L463.094 103.897V114.352C462.844 115.35 462.225 115.969 461.227 116.218L460.109 113.235V105.393L462.354 103.149H462.345Z" fill="#212121"/>
<path d="M562.683 183.113C562.683 183.113 567.07 188.426 567.07 189.097C567.07 189.768 557.633 207.042 557.633 207.042L553.779 189.235L562.691 183.121L562.683 183.113Z" fill="white" stroke="#212121" stroke-linecap="round" stroke-linejoin="round"/>
<path d="M545.4 154.274C545.4 154.274 550.183 161.987 555.508 170.353C560.824 178.728 564.549 183.113 564.549 183.113L554.579 190.421L545.4 154.274Z" fill="#428BF9" stroke="#212121" stroke-linecap="round" stroke-linejoin="round"/>
<path d="M553.598 263.317L568.876 302.413L578.244 326.238C578.244 326.238 584.764 335.602 583.543 336.418C582.321 337.235 575.801 342.729 575.801 342.729C575.801 342.729 569.487 346.194 568.059 346.194C566.631 346.194 551.147 347.415 550.949 346.401C550.742 345.386 552.575 343.753 552.575 343.753L558.691 340.288L563.577 331.732C563.577 331.732 561.951 329.901 561.745 329.29C561.538 328.68 561.745 324.604 561.745 324.604L550.949 304.244L553.598 263.308V263.317Z" fill="#212121" stroke="#212121" stroke-linecap="round" stroke-linejoin="round"/>
<path d="M523.439 231.546L532.403 291.828L539.13 330.313L536.687 331.741L536.893 336.014C536.893 336.014 534.45 338.662 533.633 339.273C532.816 339.883 523.035 343.959 523.035 343.959C523.035 343.959 523.439 347.011 524.463 347.011H546.872L555.019 346.401V341.31C555.019 339.273 554.408 331.328 554.408 330.313C554.408 329.299 553.591 329.703 553.591 325.43V317.081L555.836 245.811L557.057 227.479C557.057 227.479 543.199 220.755 539.947 221.168C536.696 221.581 523.448 231.555 523.448 231.555L523.439 231.546Z" fill="#212121" stroke="#212121" stroke-linecap="round" stroke-linejoin="round"/>
<path d="M523.99 152.942C523.99 152.942 516.807 170.086 516.411 177.928C516.016 185.77 517.211 208.632 517.211 208.632L519.207 236.937C519.207 236.937 535.164 223.911 538.752 224.977C542.339 226.043 561.892 234.813 561.892 234.813C561.892 234.813 561.496 226.172 560.429 219.001C559.363 211.822 556.575 194.677 556.575 194.282C556.575 193.886 552.188 165.177 549.797 159.064C547.405 152.95 541.418 144.18 541.418 144.18L523.999 152.95L523.99 152.942Z" fill="#428BF9" stroke="#212121" stroke-linecap="round" stroke-linejoin="round"/>
<path d="M532.669 179.639C532.669 179.639 540.678 185.942 543.577 187.644" stroke="#212121" stroke-linecap="round" stroke-linejoin="round"/>
<path d="M539.259 196.604C540.128 197.524 541.057 198.366 542.037 199.063" stroke="#212121" stroke-linecap="round" stroke-linejoin="round"/>
<path d="M531.474 183.732C531.474 183.732 533.125 188.074 535.998 192.416" stroke="#212121" stroke-linecap="round" stroke-linejoin="round"/>
<path d="M520.962 106.314C520.962 106.314 515.267 114.56 514.803 116.649C514.338 118.738 515.62 121.18 515.035 122.573C514.45 123.966 510.269 128.145 510.502 128.841C510.734 129.538 513.409 130.93 513.409 130.93C513.409 130.93 515.852 140.457 515.964 141.033C516.076 141.618 517.013 142.547 518.407 142.314C519.801 142.082 525.839 141.386 525.839 141.386L527.233 146.614L540.016 141.971C540.016 141.971 539.319 136.743 539.319 136.279C539.319 135.814 547.216 120.372 546.752 117.345C546.287 114.327 539.551 107.01 532.695 104.457C525.839 101.903 520.962 106.314 520.962 106.314Z" fill="white" stroke="#212121" stroke-linecap="round" stroke-linejoin="round"/>
<path d="M546.752 117.345C546.287 114.327 539.552 107.01 532.695 104.457C525.839 101.903 520.962 106.314 520.962 106.314C520.962 106.314 522.708 105.497 525.031 106.082C527.353 106.666 527.706 107.827 527.009 108.524C526.313 109.22 520.971 114.912 522.011 115.841C523.061 116.769 526.313 118.162 526.657 118.626C527.009 119.091 526.889 123.622 526.889 123.622C526.889 123.622 528.635 125.015 528.979 124.551C529.332 124.086 530.837 120.019 532.351 119.787C533.865 119.555 536.188 121.068 536.3 123.158C536.42 125.247 534.209 128.961 533.745 129.426C533.28 129.89 534.794 133.372 536.068 134.533C536.893 135.281 538.399 135.84 539.362 136.141C539.947 134.585 547.199 120.243 546.76 117.345H546.752Z" fill="#212121" stroke="#212121" stroke-linecap="round" stroke-linejoin="round"/>
<path d="M533.736 129.426C533.736 129.426 533.272 130.819 532.342 130.819C531.413 130.819 530.596 130.354 530.596 130.354C530.596 130.354 530.476 132.1 529.899 132.796" stroke="#212121" stroke-linecap="round" stroke-linejoin="round"/>
<path d="M516.196 117.809C516.196 117.809 518.519 116.649 520.145 118.506" stroke="#212121" stroke-linecap="round" stroke-linejoin="round"/>
<path d="M517.478 124.774C517.93 124.774 518.296 123.97 518.296 122.977C518.296 121.985 517.93 121.18 517.478 121.18C517.027 121.18 516.661 121.985 516.661 122.977C516.661 123.97 517.027 124.774 517.478 124.774Z" fill="#212121"/>
<path d="M515.964 133.605C515.964 133.605 518.407 134.069 521.306 130.931" stroke="#212121" stroke-linecap="round" stroke-linejoin="round"/>
<path d="M525.84 141.386L530.141 136.975L527.233 146.614L525.84 141.386Z" fill="#212121" stroke="#212121" stroke-linecap="round" stroke-linejoin="round"/>
<path d="M512.256 185.598L510.519 187.558L490.277 179.682L483.636 176.432L474.965 166.364C474.965 166.364 474.053 163.716 473.683 162.271C473.322 160.827 472.978 160.405 471.911 161.91C470.845 163.415 471.404 165.934 471.868 166.312C472.333 166.682 473.116 168.083 473.116 168.083L467.868 165.212C467.868 165.212 461.657 162.486 461.055 162.761C460.453 163.036 460.806 164.773 461.511 165.04C462.217 165.306 464.066 166.802 464.066 166.802L469.159 170.62C469.159 170.62 468.376 175.65 467.997 176.406C467.61 177.163 469.529 178.487 470.165 178.926C470.802 179.364 474.303 181.282 475.43 181.497C476.548 181.72 482.157 183.113 482.157 183.113C482.157 183.113 504.583 198.899 506.106 199.664C507.628 200.43 516.291 205.984 517.185 205.718C518.089 205.451 524.007 195.021 524.007 195.021L512.273 185.606L512.256 185.598Z" fill="white" stroke="#212121" stroke-linecap="round" stroke-linejoin="round"/>
<path d="M537.495 156.312C537.495 156.312 528.583 152.77 525.804 153.741C523.034 154.713 512.841 182.709 512.841 182.709L510.896 185.495L526.492 198.263L541.814 169.975" fill="#428BF9"/>
<path d="M537.495 156.312C537.495 156.312 528.583 152.77 525.804 153.741C523.034 154.713 512.841 182.709 512.841 182.709L510.896 185.495L526.492 198.263L541.814 169.975" stroke="#212121" stroke-linecap="round" stroke-linejoin="round"/>
<path d="M540.592 140.457L521.658 149.279L521.306 155.091L543.431 146.02L540.592 140.457Z" fill="#428BF9" stroke="#212121" stroke-linecap="round" stroke-linejoin="round"/>
<path d="M137.181 175.673L145.267 162.157C145.267 162.157 144.536 151.727 144.828 150.842C145.121 149.956 148.94 146.431 149.534 145.261C150.119 144.083 153.353 138.795 153.8 138.211C154.248 137.626 155.418 137.48 154.686 139.827C153.955 142.175 152.63 144.238 152.63 145.855C152.63 147.471 153.809 151.581 153.809 151.581C153.809 151.581 159.099 148.202 159.684 147.617C160.269 147.033 161.74 147.471 160.863 149.234C159.977 150.996 157.19 153.791 156.45 154.814C155.719 155.846 151.013 162.011 151.013 162.011L142.488 186.988L137.198 175.673H137.181Z" fill="white" stroke="#212121" stroke-linecap="round" stroke-linejoin="round"/>
<path d="M121.155 185.664L137.619 174.641C137.619 174.641 140.854 177.289 142.179 182.431C143.503 187.573 145.267 191.098 145.267 191.098L132.183 195.509L119.099 188.458L121.155 185.664Z" fill="white" stroke="#212121" stroke-linecap="round" stroke-linejoin="round"/>
<path d="M133.069 143.645C133.069 143.645 134.54 145.7 134.832 147.463C135.125 149.225 134.394 152.458 135.125 153.782C135.856 155.106 138.652 156.276 138.652 157.6C138.652 158.924 136.157 161.71 136.157 161.71C136.157 161.71 134.54 167.883 134.247 169.938C133.955 171.993 133.361 173.463 132.045 173.756C130.721 174.048 125.284 172.87 125.284 172.87C125.284 172.87 123.667 176.834 123.52 179.482C123.374 182.13 123.228 183.154 123.228 183.154L109.705 180.213C109.705 180.213 111.322 177.272 111.176 175.656C111.03 174.039 110.591 170.807 110.591 170.807C110.591 170.807 119.555 166.103 120.148 160.377C120.733 154.651 120.441 145.829 123.968 143.482C127.495 141.134 132.2 140.988 133.078 143.628L133.069 143.645Z" fill="white" stroke="#212121" stroke-linecap="round" stroke-linejoin="round"/>
<path d="M128.218 160.394C128.218 160.394 131.306 157.901 132.329 154.96C133.362 152.02 129.387 148.348 129.68 146.001C129.972 143.654 132.028 142.622 133.061 143.654C134.093 144.685 134.385 141.16 131.443 137.334C128.501 133.508 121.886 132.777 119.538 134.101C117.189 135.425 120.269 139.097 120.269 139.097C120.269 139.097 112.622 136.749 109.688 139.681C106.746 142.622 108.363 143.353 109.249 143.353C110.135 143.353 112.923 142.321 113.516 142.467C114.101 142.613 106.901 146.138 105.576 148.64C104.252 151.143 105.43 162.303 107.486 167.445C109.542 172.586 112.045 174.203 114.101 174.495C116.157 174.788 121.895 172.294 124.097 169.646C126.299 166.998 128.209 160.394 128.209 160.394H128.218Z" fill="#212121" stroke="#212121" stroke-linecap="round" stroke-linejoin="round"/>
<path d="M129.387 161.572C129.387 161.572 126.153 154.814 125.714 156.723C125.276 158.632 124.536 165.828 125.568 166.714C126.6 167.6 128.656 166.276 128.656 166.276" fill="white"/>
<path d="M129.387 161.572C129.387 161.572 126.153 154.814 125.714 156.723C125.276 158.632 124.536 165.828 125.568 166.714C126.6 167.6 128.656 166.276 128.656 166.276" stroke="#212121" stroke-linecap="round" stroke-linejoin="round"/>
<path d="M110.574 150.549L98.23 146.878C98.23 146.878 87.5029 143.645 79.1243 150.403C70.7456 157.161 75.8898 166.714 73.6876 167.445C71.4854 168.176 67.8123 163.919 64.8703 164.358C61.9283 164.796 58.1089 172.586 59.8723 177.436C61.6358 182.285 70.9005 189.482 79.5716 185.81C88.2427 182.139 88.6814 173.764 91.9159 175.088C95.1504 176.413 102.058 178.614 103.821 174.504C105.585 170.394 109.112 161.134 110.437 160.549C111.761 159.964 114.996 157.316 113.817 154.083C112.639 150.85 110.583 150.558 110.583 150.558L110.574 150.549Z" fill="#212121" stroke="#212121" stroke-linecap="round" stroke-linejoin="round"/>
<path d="M127.477 185.956C127.477 185.956 122.626 180.815 117.774 179.344C112.922 177.874 108.664 178.02 107.047 178.906C105.43 179.792 104.397 181.399 104.397 181.399C104.397 181.399 117.482 184.194 121.155 185.664C124.828 187.134 128.209 188.312 128.209 188.312L127.477 185.965V185.956Z" fill="white" stroke="#212121" stroke-linecap="round" stroke-linejoin="round"/>
<path d="M81.9887 252.429C81.9887 252.429 84.5866 296.082 84.5866 298.515C84.5866 300.949 76.9564 312.797 76.4661 319.933C75.9757 327.07 72.0789 352.546 72.0789 352.546L64.7755 363.578C64.7755 363.578 59.2529 369.743 58.9346 370.559C58.7166 371.098 59.2586 371.586 60.5604 372.021C62.5045 372.666 70.1348 371.694 70.952 371.376C71.7606 371.05 72.2509 367.155 73.3864 366.346C74.5219 365.538 79.3908 364.558 79.7177 362.615C80.0446 360.672 80.0446 358.075 79.8812 355.315L79.7177 352.555C79.7177 352.555 92.5438 322.375 94.1696 317.827C95.7954 313.287 100.828 293.976 100.828 293.976L105.697 269.961L112.518 306.151C112.518 306.151 111.383 313.777 111.546 322.702C111.71 331.627 116.579 351.42 117.069 354.18C117.559 356.94 116.742 364.24 116.424 367.645C116.097 371.05 114.961 371.376 117.069 371.866C119.176 372.356 132.329 372.356 133.792 372.03C135.254 371.703 138.334 372.03 138.334 370.895C138.334 369.76 130.377 365.211 129.568 364.73C128.759 364.24 124.372 359.863 124.372 358.728C124.372 357.593 126.316 341.369 126.48 339.744C126.643 338.119 128.587 325.299 128.587 319.624C128.587 313.949 127.125 304.697 127.125 304.697C127.125 304.697 131.512 277.596 131.512 270.296C131.512 262.996 130.377 253.908 130.377 253.908L81.9973 252.446L81.9887 252.429Z" fill="white" stroke="#212121" stroke-linecap="round" stroke-linejoin="round"/>
<path d="M81.9892 252.429C81.9892 252.429 84.5871 296.082 84.5871 298.515C84.5871 300.949 76.9569 312.797 76.4666 319.933C76.2257 323.424 75.1762 331.3 74.1611 338.445L85.2839 339.374C88.9657 330.638 93.2668 320.338 94.1615 317.827C95.7873 313.287 100.82 293.976 100.82 293.976L105.689 269.961L112.51 306.151C112.51 306.151 111.375 313.777 111.538 322.702C111.65 329.082 114.179 341.016 115.779 348.307L125.491 348.221C125.956 344.24 126.394 340.483 126.472 339.744C126.635 338.119 128.579 325.299 128.579 319.624C128.579 313.949 127.117 304.697 127.117 304.697C127.117 304.697 131.504 277.596 131.504 270.296C131.504 262.996 130.369 253.908 130.369 253.908L81.9892 252.446V252.429Z" fill="#212121" stroke="#212121" stroke-linecap="round" stroke-linejoin="round"/>
<path d="M140.484 222.877L156.889 235.792C156.889 235.792 162.73 236.832 163.151 236.987C163.573 237.142 166.248 241.466 166.618 242.524C166.988 243.582 164.089 249.6 164.089 249.6L161.723 244.433C161.723 244.433 157.061 242.481 156.209 241.535C155.349 240.589 153.637 238.706 153.637 238.706L138.85 233.169L140.493 222.869L140.484 222.877Z" fill="white" stroke="#212121" stroke-linecap="round" stroke-linejoin="round"/>
<path d="M104.406 181.399C104.406 181.399 96.9139 181.838 94.8493 184.194C92.7848 186.55 91.7611 197.564 93.0859 205.792C94.4106 214.021 91.9073 227.83 91.9073 227.83L78.2383 253.977C78.2383 253.977 98.815 261.913 111.013 261.173C123.211 260.442 133.061 256.616 133.061 256.616C133.061 256.616 127.917 240.452 127.031 237.374C126.145 234.287 123.796 226.505 123.796 226.505L127.323 211.373C127.323 211.373 128.329 230.357 131.882 238.99C133.542 243.031 134.532 245.163 134.532 245.163C134.532 245.163 142.024 242.077 144.966 238.113C147.908 234.149 150.773 230.22 150.773 230.22C150.773 230.22 146.179 226.196 145.095 224.958C143.16 222.739 137.895 216.239 137.895 216.239C137.895 216.239 134.833 191.984 133.069 190.66C131.306 189.336 128.218 188.312 128.218 188.312C128.218 188.312 108.226 181.847 104.406 181.408V181.399Z" fill="white" stroke="#212121" stroke-linecap="round" stroke-linejoin="round"/>
<path d="M127.331 211.373L125.714 207.555C125.714 207.555 126.6 202.56 128.209 199.181" stroke="#212121" stroke-linecap="round" stroke-linejoin="round"/>
<path d="M125.276 204.176C125.276 204.176 123.366 207.117 123.951 210.934" stroke="#212121" stroke-linecap="round" stroke-linejoin="round"/>
</g>
<path fill-rule="evenodd" clip-rule="evenodd" d="M38.9998 -1.44716H565C574.472 -1.44716 581.42 -1.44386 586.739 -0.72877C592.013 -0.0196877 595.452 1.36357 598.044 3.95589C600.636 6.54821 602.02 9.98739 602.729 15.2615C603.444 20.5802 603.447 27.528 603.447 37V251C603.447 260.472 603.444 267.42 602.729 272.739C602.02 278.013 600.636 281.452 598.044 284.044C595.452 286.636 592.013 288.02 586.739 288.729C581.42 289.444 574.472 289.447 565 289.447H210.175C191.781 289.447 176.4 275.467 174.649 257.157C173.355 243.633 172.709 236.872 168.077 233.17C163.446 229.469 156.708 230.329 143.232 232.048L113.21 235.879C60.7152 242.577 34.4681 245.926 17.5103 230.994C0.552586 216.063 0.552597 189.603 0.552597 136.683V37C0.552597 27.528 0.555883 20.5802 1.27097 15.2615C1.98007 9.98739 3.36332 6.54821 5.95564 3.95589C8.54797 1.36357 11.9872 -0.0196877 17.2613 -0.72877C22.58 -1.44386 29.5278 -1.44716 38.9998 -1.44716ZM-88.3434 261.596C-46.7465 256.288 -25.948 253.634 -13.4742 239.468C-1.00025 225.301 -1.00024 204.334 -1.00024 162.4V37C-1.00024 18.1438 -1.00024 8.71573 4.85762 2.85786C10.7155 -3 20.1436 -3 38.9998 -3H565C583.856 -3 593.284 -3 599.142 2.85786C605 8.71573 605 18.1438 605 37V251C605 269.856 605 279.284 599.142 285.142C593.284 291 583.856 291 565 291H287.908C236.486 291 210.775 291 195.897 307.37C181.018 323.74 183.466 349.334 188.362 400.522L188.83 405.416C190.167 419.39 190.835 426.376 186.81 430.93C182.786 435.484 175.77 435.68 161.738 436.072L-217.205 446.645C-230.399 447.013 -236.996 447.197 -241.21 443.213C-245.423 439.228 -245.607 432.631 -245.975 419.437L-249.097 307.544C-249.433 295.498 -249.601 289.476 -246.092 285.376C-242.582 281.276 -236.605 280.513 -224.652 278.988L-88.3434 261.596Z" fill="#428BF9"/>
</g>
<defs>
<clipPath id="clip0_1380_40">
<rect width="584" height="290" fill="white"/>
</clipPath>
</defs>
</svg>
