<svg width="16" height="17" viewBox="0 0 16 17" fill="none" xmlns="http://www.w3.org/2000/svg">
<path d="M11.1616 10.7645L10.7571 11.1909C10.7571 11.1909 9.79447 12.2036 7.16782 9.43841C4.54117 6.67321 5.50384 5.66049 5.50384 5.66049L5.75806 5.39131C6.3865 4.7306 6.44605 3.66895 5.89761 2.89341L4.77762 1.3094C4.09851 0.349391 2.78741 0.222331 2.00964 1.04116L0.61409 2.50941C0.229204 2.916 -0.0285723 3.44118 0.00253865 4.02471C0.0825381 5.51837 0.720756 8.73064 4.27984 12.4784C8.05493 16.4521 11.5971 16.6102 13.0451 16.4672C13.5038 16.422 13.902 16.1754 14.2229 15.8366L15.4851 14.5076C16.3384 13.6107 16.0984 12.0718 15.0069 11.4441L13.3091 10.4662C12.5927 10.0539 11.7216 10.1754 11.1616 10.7645Z" fill="#428BF9"/>
</svg>
