<svg width="18" height="18" viewBox="0 0 18 18" fill="none" xmlns="http://www.w3.org/2000/svg">
<path d="M8.9995 0C9.21995 2.90811e-05 9.43273 0.0809651 9.59747 0.227456C9.76221 0.373948 9.86746 0.575806 9.89325 0.794744L9.89955 0.90005V0.949553C11.6838 1.14959 13.3511 1.9364 14.6398 3.1865C15.9285 4.43659 16.7656 6.07921 17.0198 7.85654L17.0504 8.10045H17.1C17.3294 8.1007 17.55 8.18854 17.7168 8.34603C17.8836 8.50351 17.984 8.71874 17.9975 8.94775C18.0109 9.17676 17.9364 9.40226 17.7892 9.57818C17.6419 9.7541 17.4331 9.86715 17.2053 9.89425L17.1 9.90055H17.0504C16.8504 11.6848 16.0636 13.3521 14.8135 14.6408C13.5634 15.9295 11.9208 16.7666 10.1435 17.0208L9.89955 17.0514V17.1009C9.8993 17.3304 9.81145 17.551 9.65397 17.7178C9.49649 17.8846 9.28126 17.985 9.05225 17.9985C8.82324 18.0119 8.59774 17.9374 8.42182 17.7901C8.2459 17.6429 8.13285 17.4341 8.10575 17.2063L8.09945 17.1009V17.0514C6.31522 16.8514 4.64791 16.0646 3.3592 14.8145C2.0705 13.5644 1.23335 11.9218 0.979157 10.1445L0.948556 9.90055H0.899053C0.669648 9.90029 0.448999 9.81245 0.282187 9.65497C0.115375 9.49749 0.0149923 9.28226 0.00154812 9.05325C-0.011896 8.82424 0.0626135 8.59873 0.209853 8.42282C0.357092 8.2469 0.565948 8.13384 0.793747 8.10675L0.899053 8.10045H0.948556C1.14859 6.31622 1.9354 4.6489 3.1855 3.3602C4.4356 2.0715 6.07821 1.23435 7.85554 0.980154L8.09945 0.949553V0.90005C8.09945 0.661342 8.19428 0.432411 8.36307 0.263618C8.53186 0.0948264 8.76079 0 8.9995 0ZM8.9995 4.50025C7.80596 4.50025 6.66131 4.97438 5.81734 5.81834C4.97338 6.6623 4.49925 7.80696 4.49925 9.0005C4.49925 10.194 4.97338 11.3387 5.81734 12.1827C6.66131 13.0266 7.80596 13.5007 8.9995 13.5007C10.193 13.5007 11.3377 13.0266 12.1817 12.1827C13.0256 11.3387 13.4998 10.194 13.4998 9.0005C13.4998 7.80696 13.0256 6.6623 12.1817 5.81834C11.3377 4.97438 10.193 4.50025 8.9995 4.50025ZM8.9995 6.30035C9.71563 6.30035 10.4024 6.58483 10.9088 7.0912C11.4152 7.59758 11.6997 8.28437 11.6997 9.0005C11.6997 9.71662 11.4152 10.4034 10.9088 10.9098C10.4024 11.4162 9.71563 11.7006 8.9995 11.7006C8.28338 11.7006 7.59658 11.4162 7.09021 10.9098C6.58383 10.4034 6.29935 9.71662 6.29935 9.0005C6.29935 8.28437 6.58383 7.59758 7.09021 7.0912C7.59658 6.58483 8.28338 6.30035 8.9995 6.30035Z" fill="#428BF9"/>
</svg>
