<svg width="18" height="18" viewBox="0 0 18 18" fill="none" xmlns="http://www.w3.org/2000/svg">
<path d="M17.7105 0.34205C17.6567 0.211845 17.5532 0.106808 17.4217 0.0487913C17.2902 -0.00922567 17.1406 -0.0157559 17.0043 0.0305591C16.8679 0.076874 16.7552 0.172468 16.6895 0.297455C16.6239 0.422441 16.6104 0.567197 16.6518 0.701608C17.5138 3.10767 15.8028 4.90456 14.4983 5.86698L13.9713 5.13345C13.7941 4.88744 13.3979 4.68288 13.0898 4.67927L10.1319 4.69189C9.77051 4.70249 9.41883 4.80773 9.11401 4.99648L0.397818 10.9323C0.195079 11.0709 0.0571312 11.2818 0.0141777 11.519C-0.0287758 11.7561 0.0267653 12.0001 0.16864 12.1975L4.12962 17.7018C4.42653 18.1118 4.90066 18.0622 5.32375 17.7756L14.0399 11.8389C14.2905 11.6668 14.5799 11.2955 14.682 11.0116L15.608 8.17753C15.7101 7.89457 15.6479 7.46292 15.4707 7.2169L15.1496 6.76993C16.9014 5.46597 18.72 3.16174 17.7105 0.34205ZM13.6549 8.77499C13.4943 8.88415 13.3132 8.96152 13.1218 9.00267C12.9304 9.04381 12.7326 9.04794 12.5396 9.0148C12.3466 8.98166 12.1622 8.9119 11.9969 8.80953C11.8317 8.70715 11.6888 8.57415 11.5765 8.41813C11.3491 8.10242 11.26 7.71198 11.3287 7.33252C11.3974 6.95305 11.6184 6.61557 11.943 6.39416C12.1975 6.22097 12.5014 6.12935 12.8121 6.13209C13.1229 6.13484 13.425 6.23182 13.6762 6.40948C13.4239 6.55726 13.2503 6.64377 13.2179 6.65729C13.1029 6.71055 13.0099 6.80018 12.9542 6.91148C12.8985 7.02278 12.8833 7.14916 12.9113 7.26991C12.9392 7.39065 13.0085 7.49861 13.1079 7.57608C13.2072 7.65355 13.3308 7.69594 13.4582 7.69631C13.538 7.69631 13.6196 7.67829 13.6966 7.64315C13.8766 7.56024 14.0696 7.46202 14.271 7.34577C14.3173 7.61617 14.284 7.89377 14.175 8.14662C14.066 8.39947 13.8857 8.61729 13.6549 8.77499Z" fill="#428BF9"/>
</svg>
