<svg width="16" height="18" viewBox="0 0 16 18" fill="none" xmlns="http://www.w3.org/2000/svg">
<path fill-rule="evenodd" clip-rule="evenodd" d="M7.875 2.57155C6.08808 2.56876 4.35377 3.16392 2.95925 4.25848L1.68787 3.01385L0.450625 4.22591L1.722 5.47054C0.644 6.7906 0 8.46468 0 10.2862C0.000136208 11.5185 0.301613 12.7328 0.879194 13.8276C1.45677 14.9223 2.29365 15.8656 3.31977 16.5784C4.34588 17.2912 5.53138 17.7528 6.77701 17.9246C8.02265 18.0965 9.29217 17.9735 10.4793 17.5659C11.6665 17.1584 12.7367 16.4782 13.6004 15.5823C14.4641 14.6863 15.0961 13.6008 15.4436 12.4164C15.7911 11.232 15.8439 9.98337 15.5976 8.77491C15.3513 7.56646 14.8131 6.43338 14.028 5.47054L15.2994 4.22505L14.0621 3.013L12.7907 4.25848C11.4432 3.20243 9.73437 2.57155 7.875 2.57155ZM10.2189 15.8297C9.47582 16.1313 8.67935 16.2865 7.875 16.2865C6.25055 16.2865 4.69263 15.6543 3.54397 14.529C2.39531 13.4038 1.75 11.8776 1.75 10.2862C1.75 8.69482 2.39531 7.16862 3.54397 6.04335C4.69263 4.91808 6.25055 4.28591 7.875 4.28591C8.67935 4.28591 9.47582 4.44111 10.2189 4.74266C10.9621 5.0442 11.6373 5.48618 12.206 6.04335C12.7748 6.60053 13.226 7.262 13.5338 7.98998C13.8416 8.71797 14 9.49822 14 10.2862C14 11.0742 13.8416 11.8544 13.5338 12.5824C13.226 13.3104 12.7748 13.9719 12.206 14.529C11.6373 15.0862 10.9621 15.5282 10.2189 15.8297ZM11.375 0H4.375V1.71437H11.375V0Z" fill="#428BF9"/>
<path fill-rule="evenodd" clip-rule="evenodd" d="M7.875 16.2865C8.67935 16.2865 9.47582 16.1313 10.2189 15.8297C10.9621 15.5282 11.6373 15.0862 12.206 14.529C12.7748 13.9719 13.226 13.3104 13.5338 12.5824C13.8416 11.8544 14 11.0742 14 10.2862C14 9.49822 13.8416 8.71797 13.5338 7.98998C13.226 7.262 12.7748 6.60053 12.206 6.04335C11.6373 5.48618 10.9621 5.0442 10.2189 4.74266C9.47582 4.44111 8.67935 4.28591 7.875 4.28591C6.25055 4.28591 4.69263 4.91808 3.54397 6.04335C2.39531 7.16862 1.75 8.69482 1.75 10.2862C1.75 11.8776 2.39531 13.4038 3.54397 14.529C4.69263 15.6543 6.25055 16.2865 7.875 16.2865ZM11.375 9.42901H8.75V5.5674L4.375 11.1434H7V15.0007L11.375 9.42901Z" fill="#428BF9"/>
</svg>
