<svg width="13" height="17" viewBox="0 0 13 17" fill="none" xmlns="http://www.w3.org/2000/svg">
<path fill-rule="evenodd" clip-rule="evenodd" d="M6.39991 15.6998L6.9663 16.2646C6.89197 16.3392 6.80364 16.3984 6.70638 16.4388C6.60911 16.4792 6.50483 16.5 6.39951 16.5C6.29419 16.5 6.1899 16.4792 6.09264 16.4388C5.99537 16.3984 5.90704 16.3392 5.83272 16.2646L5.82791 16.259L5.81431 16.2454L5.76472 16.195C5.48271 15.9045 5.20535 15.6095 4.93273 15.3102C4.24826 14.5602 3.59285 13.7841 2.96796 12.9838C2.25437 12.0638 1.52478 11.0238 0.970386 9.99666C0.427994 8.98948 0 7.89829 0 6.89991C0 3.26876 2.87356 0.5 6.39991 0.5C9.92626 0.5 12.7998 3.26876 12.7998 6.89991C12.7998 7.89829 12.3718 8.98948 11.8294 9.99586C11.275 11.0246 10.5462 12.0638 9.83186 12.9838C8.95777 14.1035 8.02417 15.1754 7.0351 16.195L6.9855 16.2454L6.9719 16.259L6.9671 16.2638L6.39991 15.6998ZM6.39991 9.29987C7.03642 9.29987 7.64686 9.04702 8.09694 8.59694C8.54702 8.14686 8.79987 7.53642 8.79987 6.89991C8.79987 6.2634 8.54702 5.65296 8.09694 5.20288C7.64686 4.75279 7.03642 4.49994 6.39991 4.49994C5.7634 4.49994 5.15296 4.75279 4.70287 5.20288C4.25279 5.65296 3.99994 6.2634 3.99994 6.89991C3.99994 7.53642 4.25279 8.14686 4.70287 8.59694C5.15296 9.04702 5.7634 9.29987 6.39991 9.29987Z" fill="#428BF9"/>
</svg>
