<svg width="582" height="695" viewBox="0 0 582 695" fill="none" xmlns="http://www.w3.org/2000/svg">
<path fill-rule="evenodd" clip-rule="evenodd" d="M80.0002 4.51341H502C520.984 4.51341 534.768 4.52299 545.29 5.93763C555.682 7.3348 562.214 10.0277 567.093 14.9072C571.973 19.7867 574.665 26.3185 576.063 36.7105C577.477 47.2324 577.487 61.0162 577.487 80V615C577.487 633.984 577.477 647.768 576.063 658.289C574.665 668.682 571.973 675.213 567.093 680.093C562.214 684.972 555.682 687.665 545.29 689.062C534.768 690.477 520.984 690.487 502 690.487C482.093 690.487 462.405 666.454 460.74 646.616C460.361 642.106 459.909 637.231 459.42 631.951L448.611 515.342C445.49 481.682 443.93 464.852 432.417 455.665C420.904 446.478 404.147 448.693 370.634 453.121L293.779 463.277C159.05 481.08 91.6855 489.982 48.0996 451.777C4.51363 413.571 4.51363 345.621 4.51363 209.721V80C4.51363 61.0162 4.52322 47.2324 5.93784 36.7105C7.33502 26.3185 10.0279 19.7867 14.9074 14.9072C19.7869 10.0277 26.3187 7.3348 36.7107 5.93763C47.2327 4.52299 61.0164 4.51341 80.0002 4.51341ZM-6.51751 502.959C-2.78743 502.466 0.000221252 499.286 0.000221252 495.523V80C0.000221252 42.2876 0.000221252 23.4315 11.716 11.7157C23.4317 0 42.2879 0 80.0002 0H502C539.713 0 558.569 0 570.285 11.7157C582 23.4315 582 42.2876 582 80V615C582 652.712 582 671.569 570.285 683.284C558.569 695 539.713 695 502 695C471.532 695 439.522 705.791 409.078 706.995C404.027 707.195 398.499 707.349 392.44 707.518L6.64246 718.283H6.64186C-25.9689 719.193 -42.2743 719.648 -52.6879 709.799C-63.1016 699.951 -63.5565 683.646 -64.4665 651.034L-66.63 573.498C-67.4573 543.85 -67.8709 529.025 -59.2476 518.906C-50.6243 508.787 -35.922 506.844 -6.51751 502.959Z" fill="#428BF9"/>
</svg>
