<svg width="248" height="50" viewBox="0 0 248 50" fill="none" xmlns="http://www.w3.org/2000/svg">
<path d="M109.862 26.3452C109.808 27.2402 109.618 28.1082 109.293 28.949C108.981 29.7762 108.513 30.5221 107.889 31.1866C107.279 31.8376 106.499 32.3529 105.55 32.7326C104.6 33.1123 103.475 33.3022 102.173 33.3022C100.993 33.3022 99.8743 33.1327 98.8165 32.7936C97.7723 32.4546 96.8433 31.9528 96.0296 31.2883C95.2295 30.6103 94.5989 29.7762 94.1378 28.7862C93.6767 27.7827 93.4462 26.6232 93.4462 25.3077C93.4462 23.9923 93.6767 22.8396 94.1378 21.8496C94.5989 20.846 95.2431 20.012 96.0703 19.3475C96.8976 18.6694 97.8537 18.1609 98.9386 17.8218C100.023 17.4828 101.197 17.3133 102.458 17.3133C104.221 17.3133 105.726 17.5777 106.974 18.1066C108.235 18.622 109.245 19.3339 110.005 20.2425C110.778 21.1512 111.286 22.2022 111.53 23.3956H106.262C106.14 23.0159 105.896 22.6972 105.529 22.4395C105.177 22.1683 104.743 21.9648 104.228 21.8292C103.712 21.6801 103.136 21.6055 102.498 21.6055C101.712 21.6055 101.034 21.7411 100.464 22.0123C99.8946 22.27 99.4539 22.67 99.142 23.2125C98.8436 23.755 98.6945 24.4534 98.6945 25.3077C98.6945 26.1757 98.864 26.8944 99.203 27.464C99.5556 28.0336 100.051 28.454 100.688 28.7252C101.339 28.9964 102.105 29.1321 102.987 29.1321C103.841 29.1321 104.6 29.0371 105.265 28.8473C105.929 28.6438 106.465 28.3387 106.872 27.9319C107.292 27.5115 107.55 26.9826 107.645 26.3452H109.862ZM103.312 27.7488V24.7788H111.652V32.936H108.011L107.238 27.0978L108.154 27.7488H103.312ZM120.598 33.3022C119.147 33.3022 117.845 33.0445 116.692 32.5292C115.553 32.0003 114.651 31.268 113.987 30.3322C113.322 29.3829 112.99 28.2845 112.99 27.0368C112.99 25.8027 113.309 24.7246 113.946 23.8024C114.597 22.8802 115.478 22.1615 116.59 21.6462C117.702 21.1308 118.95 20.8732 120.333 20.8732C121.784 20.8732 123.019 21.1715 124.036 21.7682C125.053 22.3649 125.833 23.2125 126.375 24.311C126.917 25.3959 127.189 26.6842 127.189 28.176H117.221V25.7959H124.178L122.795 26.5689C122.727 26.0401 122.591 25.5993 122.388 25.2467C122.185 24.8941 121.913 24.6297 121.574 24.4534C121.249 24.2635 120.856 24.1686 120.394 24.1686C119.879 24.1686 119.438 24.2838 119.072 24.5144C118.72 24.7449 118.448 25.0636 118.259 25.4705C118.082 25.8638 117.994 26.3113 117.994 26.8131C117.994 27.464 118.136 28.0132 118.421 28.4608C118.72 28.8947 119.167 29.227 119.764 29.4575C120.361 29.6881 121.113 29.8033 122.022 29.8033C122.903 29.8033 123.758 29.6949 124.585 29.4779C125.426 29.2473 126.199 28.9219 126.904 28.5015V31.4307C126.036 32.041 125.046 32.5089 123.934 32.8343C122.835 33.1462 121.723 33.3022 120.598 33.3022ZM127.622 25.0026V22.7853L129.92 21.6258L132.178 18.0456H135.087V21.2393H139.664V25.0026H135.087V27.2199C135.087 28.0471 135.23 28.6303 135.514 28.9693C135.799 29.2948 136.382 29.4575 137.264 29.4575C137.806 29.4575 138.288 29.4236 138.708 29.3558C139.142 29.2745 139.529 29.1795 139.868 29.071V32.7936C139.406 32.9293 138.837 33.0445 138.159 33.1395C137.494 33.2479 136.796 33.3022 136.064 33.3022C134.68 33.3022 133.534 33.0988 132.626 32.6919C131.717 32.2715 131.039 31.668 130.592 30.8815C130.144 30.0949 129.92 29.1592 129.92 28.0743V25.0026H127.622ZM139.013 25.0026V21.2393H143.651L140.071 23.599L143.57 18.0456H146.479V21.2393H151.056V25.0026H146.479V27.2199C146.479 28.0471 146.621 28.6303 146.906 28.9693C147.191 29.2948 147.774 29.4575 148.655 29.4575C149.198 29.4575 149.679 29.4236 150.1 29.3558C150.534 29.2745 150.92 29.1795 151.259 29.071V32.7936C150.798 32.9293 150.228 33.0445 149.55 33.1395C148.886 33.2479 148.187 33.3022 147.455 33.3022C146.072 33.3022 144.926 33.0988 144.017 32.6919C143.109 32.2715 142.431 31.668 141.983 30.8815C141.536 30.0949 141.312 29.1592 141.312 28.0743V25.0026H139.013ZM156.209 17.6794V31.7358L155.008 30.5763H166.502V32.936H153.523V17.6794H156.209ZM174.006 33.2208C172.663 33.2208 171.47 32.9699 170.426 32.4682C169.381 31.9528 168.561 31.2409 167.964 30.3322C167.367 29.4236 167.069 28.3658 167.069 27.1589C167.069 25.9655 167.347 24.9212 167.903 24.0262C168.473 23.1176 169.253 22.4124 170.242 21.9106C171.246 21.3953 172.392 21.1376 173.68 21.1376C174.969 21.1376 176.081 21.4292 177.016 22.0123C177.966 22.5819 178.698 23.3888 179.213 24.433C179.729 25.4773 179.986 26.7046 179.986 28.115H169.144V26.1011H178.664L177.342 26.8537C177.301 26.0943 177.118 25.4434 176.793 24.9009C176.481 24.3584 176.054 23.9448 175.511 23.66C174.982 23.3617 174.352 23.2125 173.619 23.2125C172.846 23.2125 172.168 23.3685 171.585 23.6804C171.015 23.9923 170.568 24.433 170.242 25.0026C169.917 25.5586 169.754 26.2231 169.754 26.9961C169.754 27.8505 169.944 28.5896 170.324 29.2134C170.717 29.8373 171.266 30.3187 171.972 30.6577C172.69 30.9832 173.538 31.1459 174.514 31.1459C175.396 31.1459 176.298 31.0103 177.22 30.7391C178.142 30.4543 178.956 30.061 179.661 29.5592V31.4714C178.956 32.0139 178.095 32.441 177.077 32.753C176.074 33.0649 175.05 33.2208 174.006 33.2208ZM192.903 32.936L192.455 28.6642L192.984 27.1792L192.455 25.7146L192.903 21.4224H195.629L195.018 27.1792L195.629 32.936H192.903ZM193.717 27.1792C193.459 28.3862 193.032 29.444 192.435 30.3526C191.838 31.2612 191.099 31.9664 190.218 32.4682C189.35 32.9699 188.38 33.2208 187.309 33.2208C186.183 33.2208 185.186 32.9699 184.318 32.4682C183.451 31.9528 182.772 31.2409 182.284 30.3322C181.796 29.4236 181.552 28.3726 181.552 27.1792C181.552 25.9722 181.796 24.9212 182.284 24.0262C182.772 23.1176 183.451 22.4124 184.318 21.9106C185.186 21.3953 186.183 21.1376 187.309 21.1376C188.38 21.1376 189.35 21.3885 190.218 21.8903C191.099 22.392 191.838 23.0972 192.435 24.0058C193.045 24.9009 193.472 25.9587 193.717 27.1792ZM184.237 27.1792C184.237 27.9522 184.393 28.6371 184.705 29.2338C185.03 29.8169 185.471 30.278 186.027 30.617C186.583 30.9425 187.221 31.1052 187.939 31.1052C188.672 31.1052 189.35 30.9425 189.974 30.617C190.597 30.278 191.147 29.8169 191.621 29.2338C192.109 28.6371 192.496 27.9522 192.781 27.1792C192.496 26.4062 192.109 25.7281 191.621 25.145C191.147 24.5483 190.597 24.0872 189.974 23.7617C189.35 23.4227 188.672 23.2532 187.939 23.2532C187.221 23.2532 186.583 23.4227 186.027 23.7617C185.471 24.0872 185.03 24.5483 184.705 25.145C184.393 25.7281 184.237 26.4062 184.237 27.1792ZM210.094 29.4372C210.094 30.2102 209.877 30.8815 209.443 31.4511C209.009 32.0206 208.352 32.4614 207.47 32.7733C206.589 33.0716 205.483 33.2208 204.154 33.2208C202.785 33.2208 201.598 33.0513 200.594 32.7123C199.591 32.3597 198.811 31.8715 198.255 31.2476C197.713 30.6103 197.421 29.8779 197.38 29.0507H200.065C200.147 29.4847 200.364 29.8712 200.716 30.2102C201.083 30.5357 201.557 30.7866 202.14 30.9628C202.737 31.1391 203.415 31.2273 204.175 31.2273C205.273 31.2273 206.1 31.0985 206.656 30.8408C207.212 30.5696 207.49 30.1627 207.49 29.6203C207.49 29.2541 207.3 28.9761 206.921 28.7862C206.555 28.5964 205.856 28.454 204.826 28.3591L202.568 28.1556C201.347 28.0471 200.384 27.8302 199.679 27.5047C198.974 27.1657 198.472 26.7588 198.174 26.2842C197.875 25.7959 197.726 25.2806 197.726 24.7382C197.726 23.9516 197.97 23.2939 198.458 22.765C198.947 22.2361 199.625 21.836 200.493 21.5648C201.361 21.28 202.371 21.1376 203.524 21.1376C204.717 21.1376 205.782 21.3071 206.717 21.6462C207.653 21.9716 208.399 22.4327 208.955 23.0294C209.511 23.6126 209.823 24.2906 209.891 25.0636H207.206C207.151 24.7517 206.989 24.4534 206.717 24.1686C206.46 23.8702 206.06 23.6261 205.517 23.4363C204.988 23.2328 204.276 23.1311 203.381 23.1311C202.432 23.1311 201.686 23.2532 201.144 23.4973C200.615 23.7414 200.35 24.1008 200.35 24.5754C200.35 24.8738 200.513 25.1314 200.838 25.3484C201.164 25.5518 201.767 25.6942 202.649 25.7756L205.558 26.0401C206.724 26.1485 207.633 26.3587 208.284 26.6707C208.948 26.969 209.416 27.3555 209.687 27.8302C209.959 28.3048 210.094 28.8405 210.094 29.4372ZM212.238 21.341L213.561 21.5851L214.883 21.341V32.936H212.238V21.341ZM213.561 19.8967C213.059 19.8967 212.645 19.7611 212.32 19.4899C211.994 19.2051 211.831 18.8389 211.831 18.3914C211.831 17.9439 211.994 17.5845 212.32 17.3133C212.645 17.0285 213.059 16.8861 213.561 16.8861C214.076 16.8861 214.49 17.0285 214.801 17.3133C215.127 17.5845 215.29 17.9439 215.29 18.3914C215.29 18.8389 215.127 19.2051 214.801 19.4899C214.49 19.7611 214.076 19.8967 213.561 19.8967ZM217.132 21.4224H219.777L220.468 25.5722V32.936H217.824V25.1857L217.132 21.4224ZM225.045 21.1376C226.13 21.1376 227.052 21.3546 227.812 21.7885C228.571 22.2225 229.148 22.8463 229.541 23.66C229.948 24.4601 230.151 25.4298 230.151 26.5689V32.936H227.507V26.9961C227.507 25.7892 227.222 24.8806 226.652 24.2703C226.096 23.6465 225.276 23.3346 224.191 23.3346C223.445 23.3346 222.787 23.5041 222.218 23.8431C221.662 24.1686 221.228 24.6297 220.916 25.2264C220.617 25.8231 220.468 26.5215 220.468 27.3216L219.533 26.8131C219.655 25.6196 219.967 24.6025 220.468 23.7617C220.97 22.9209 221.614 22.2768 222.401 21.8292C223.187 21.3681 224.069 21.1376 225.045 21.1376ZM243.255 30.1085V28.0743L243.357 27.7081V25.4908L243.255 25.084V21.4224H245.899V29.8644C245.899 31.3426 245.587 32.5767 244.964 33.5666C244.34 34.5702 243.485 35.3228 242.4 35.8246C241.316 36.3264 240.068 36.5773 238.658 36.5773C237.627 36.5773 236.678 36.4417 235.81 36.1704C234.942 35.8992 234.101 35.4856 233.287 34.9296V32.7326C234.114 33.3836 234.969 33.8379 235.85 34.0955C236.732 34.3668 237.613 34.5024 238.495 34.5024C240.041 34.5024 241.221 34.1227 242.034 33.3632C242.848 32.6038 243.255 31.5189 243.255 30.1085ZM237.722 32.041C236.664 32.041 235.715 31.8172 234.874 31.3697C234.033 30.9086 233.369 30.2712 232.88 29.4575C232.392 28.6438 232.148 27.6878 232.148 26.5893C232.148 25.4908 232.392 24.5347 232.88 23.7211C233.369 22.9074 234.033 22.2768 234.874 21.8292C235.715 21.3681 236.664 21.1376 237.722 21.1376C238.508 21.1376 239.234 21.2597 239.898 21.5038C240.576 21.7479 241.18 22.0733 241.709 22.4802C242.251 22.8735 242.706 23.3142 243.072 23.8024C243.451 24.2771 243.743 24.7653 243.946 25.2671C244.15 25.7553 244.252 26.2028 244.252 26.6096C244.252 27.1385 244.096 27.7217 243.784 28.3591C243.472 28.9829 243.024 29.5728 242.441 30.1288C241.872 30.6848 241.187 31.1459 240.387 31.5121C239.586 31.8647 238.698 32.041 237.722 32.041ZM238.535 30.0881C239.498 30.0881 240.38 29.8101 241.18 29.2541C241.994 28.6981 242.719 27.8098 243.357 26.5893C242.719 25.3416 241.994 24.4466 241.18 23.9041C240.38 23.3481 239.498 23.0701 238.535 23.0701C237.749 23.0701 237.078 23.2193 236.522 23.5176C235.966 23.816 235.538 24.2296 235.24 24.7585C234.955 25.2874 234.813 25.8977 234.813 26.5893C234.813 27.2674 234.955 27.8708 235.24 28.3997C235.538 28.9286 235.966 29.3423 236.522 29.6406C237.078 29.939 237.749 30.0881 238.535 30.0881Z" fill="white"/>
<path d="M34.4322 8.00803C32.944 7.9349 31.2502 7.89832 30.6452 7.91051C30.0524 7.9227 28.661 7.97146 27.56 8.02021C26.459 8.06896 24.8862 8.16647 24.0513 8.25179C23.2165 8.32492 21.8009 8.49555 20.9056 8.61743C20.0103 8.73931 18.6189 8.98307 17.8204 9.15371C17.0219 9.33653 15.7999 9.66561 15.0981 9.90937C14.3964 10.1409 13.4164 10.5553 12.9203 10.8113C12.4243 11.0672 11.7467 11.5182 11.4201 11.8107C11.0934 12.091 10.6699 12.5542 10.4763 12.8223C10.2828 13.0905 10.1376 13.3586 10.1376 13.4317C10.1376 13.4453 10.1477 13.448 10.1661 13.4412C10.095 13.5451 10.0237 13.6592 9.9571 13.7811C9.87122 13.754 9.70147 13.7364 9.50843 13.7364C9.21805 13.7486 8.77039 13.834 8.50422 13.9315C8.23804 14.029 7.72988 14.3215 7.36692 14.5774C6.72567 15.0162 6.68938 15.0284 6.03604 14.9309C5.63677 14.8821 5.08022 14.8821 4.69306 14.9553C4.33009 15.0284 3.83404 15.1746 3.60416 15.2843C3.37428 15.4062 2.97501 15.6987 2.73303 15.9547C2.47895 16.2106 2.16438 16.6372 2.0313 16.9054C1.89821 17.1735 1.70462 17.7585 1.60783 18.2095C1.49894 18.6604 1.42635 19.3552 1.45055 19.7452L1.48684 20.4643C2.11599 19.6111 2.46686 19.2455 2.67254 19.1114C2.89032 18.9773 3.26539 18.8555 3.51946 18.8555C3.85823 18.8555 4.07601 18.953 4.41478 19.2455C4.68096 19.4892 5.01973 20.0133 5.2738 20.5618C5.50368 21.0615 5.87875 22.1828 6.09653 23.0604C6.31431 23.9257 6.59259 25.3274 6.73777 26.1684C6.84283 26.8226 6.97804 27.6743 7.072 28.2738L7.10387 28.5086C7.20125 29.2767 7.36208 30.3952 7.50685 31.402C7.66999 32.5366 7.81272 33.5292 7.82127 33.7188C7.8364 34.0544 18.9134 36.8248 25.4808 38.4199C26.1686 38.6174 26.7131 38.745 26.7131 38.7221L26.7129 38.7182L26.7204 38.72C26.4111 37.4189 25.9257 33.8489 26.4581 29.9781C26.4663 29.919 26.4746 29.8606 26.4832 29.8027C26.4955 29.7439 26.5077 29.6817 26.5195 29.6176C26.5679 29.3007 26.7252 28.6304 26.8462 28.1428C26.9742 27.674 27.214 27.0023 27.4044 26.6047C27.4407 26.5333 27.4778 26.4639 27.5156 26.3965C27.7207 26.0426 28.0303 25.6232 28.2496 25.4127C28.5037 25.1567 28.9877 24.8398 29.3144 24.6814C29.7862 24.4742 30.1492 24.4011 30.9477 24.4011C31.9035 24.4011 32.0366 24.4254 32.7626 24.8277C33.186 25.0592 33.9724 25.6686 34.5169 26.1805C35.0492 26.6803 35.8115 27.5334 36.2107 28.0453C36.7189 28.7035 37.1061 29.0813 37.4811 29.2763C37.7836 29.4226 38.7394 29.7761 39.5984 30.0442C40.4696 30.3001 41.8246 30.6658 42.6232 30.8486C43.4217 31.0314 44.8978 31.3361 45.8899 31.5311C46.8941 31.714 48.4911 31.9943 49.4591 32.1405C50.427 32.2868 51.2981 32.4574 51.3949 32.5062C51.5159 32.5712 51.3344 32.6565 50.8504 32.7621C50.306 32.884 48.9146 32.9328 45.3212 32.9328C42.6837 32.9328 40.5542 32.9693 40.6026 33.0059C40.651 33.0547 41.0745 33.1522 41.5343 33.2131C42.0061 33.2862 43.3854 33.4081 44.6195 33.4934C45.9746 33.5787 48.2613 33.6031 50.427 33.5665C52.7379 33.5178 54.4075 33.4325 55.1455 33.3106C55.7747 33.2009 57.0088 33.0668 57.8678 32.9937C58.7389 32.9206 60.8078 32.8109 62.4654 32.75C64.135 32.689 68.5995 32.5671 72.3865 32.494C76.1856 32.4209 79.3797 32.3112 79.5007 32.2502C79.6096 32.1893 79.7547 31.9577 79.8152 31.7383C79.8636 31.5189 79.8757 30.9827 79.8273 30.5561C79.7789 30.1173 79.6217 29.5079 79.4644 29.2154C79.3192 28.9107 78.9199 28.2647 78.6053 27.7772C78.2787 27.2897 78.0004 26.8996 77.9883 26.8996C77.966 26.8996 77.9746 27.1905 77.9855 27.5613L77.9883 27.6553C78.0246 28.2647 77.9883 28.4597 77.8068 28.6425C77.6858 28.7522 77.4559 28.8498 77.2866 28.8498C77.1172 28.8498 76.7179 28.7157 76.3792 28.5329L75.7742 28.216C74.1771 28.606 73.064 28.801 72.2655 28.8985C71.467 28.996 69.8941 29.1301 68.7568 29.2032C67.6316 29.2763 65.8047 29.3495 64.7037 29.386C63.6027 29.4104 60.3723 29.3982 57.5048 29.3495C53.004 29.2641 52.2539 29.2763 51.9393 29.4348C51.6974 29.5567 51.0803 29.642 50.1245 29.6785C48.7573 29.7273 48.5758 29.7029 47.0393 29.3007C46.144 29.0569 44.8131 28.6547 44.075 28.411C43.3491 28.1672 42.4175 27.8138 42.0182 27.6309C41.619 27.4481 41.1108 27.119 40.893 26.8874C40.6631 26.6559 40.3607 26.2537 40.2034 25.9855C40.0461 25.7174 39.7557 24.9983 39.55 24.4011C39.3444 23.7917 39.1387 22.9629 39.0903 22.5485L38.9935 21.7928C39.5379 21.7725 39.6592 21.7476 40.0461 21.5978C40.0949 21.5673 40.1321 21.5299 40.1619 21.4998C40.1807 21.4809 40.1966 21.4649 40.2106 21.4554L40.2116 21.4547C37.5262 20.3508 30.2228 18.6819 23.1327 19.313C22.2218 20.2649 20.9984 20.5987 19.7017 20.5329C18.369 20.4652 16.9354 19.9765 15.6083 19.279C14.2789 18.5804 13.0363 17.6617 12.084 16.7116C11.1425 15.7722 10.4439 14.7616 10.2736 13.8723L10.2518 13.7587L10.3065 13.657C11.1284 12.1285 12.9409 11.1813 14.809 10.6034C16.6941 10.0203 18.7213 9.78725 20.0862 9.7458C20.3783 9.73693 20.633 9.92957 20.7146 10.2053L23.2145 18.6571C23.8138 18.6063 24.4144 18.5714 25.0134 18.5509L22.4132 9.85264V9.80501C22.4132 9.68301 22.4469 9.511 22.5509 9.35587C22.6636 9.18764 22.8516 9.05272 23.1184 9.02827C23.1184 9.02827 23.1183 9.02818 23.1242 9.0272C23.133 9.02573 23.1519 9.02261 23.1858 9.01659C23.2103 9.01226 23.2378 9.00731 23.2696 9.0016C23.3033 8.99555 23.3418 8.98864 23.3865 8.98067C23.5565 8.95042 23.7956 8.9088 24.0974 8.86115C24.7008 8.76584 25.5541 8.6465 26.6074 8.54511C27.6152 8.44809 28.8068 8.36744 30.1385 8.34005L30.1613 8.3371L30.209 8.33865C31.6421 8.3113 33.2355 8.3459 34.9356 8.48789C41.5602 9.04115 49.8304 11.2276 56.5396 17.7602L57.1834 18.3871L56.2912 18.3148C51.7926 17.9507 40.2239 17.5353 28.0146 18.5615C33.4242 18.775 38.2999 19.9735 40.4432 20.8518L40.444 20.8502C40.8953 21.0233 41.3096 21.1904 41.5948 21.3175C42.2239 21.5856 43.5064 22.195 44.438 22.6704C45.3696 23.1579 46.9062 24.0598 47.8499 24.7058C48.7936 25.3396 50.2818 26.4731 51.1408 27.2287L52.7258 28.606L52.7285 28.6059V28.6288H58.0354C60.1445 28.694 62.0365 28.7157 63.6753 28.7157C66.1435 28.7279 68.7205 28.6669 69.4223 28.5938C70.124 28.5329 71.2129 28.3866 71.842 28.2891C72.4712 28.1794 73.4028 27.9966 73.8989 27.8625C74.3949 27.7406 74.9636 27.5822 75.1451 27.509L75.4717 27.3872C75.0362 26.7656 74.6248 26.0952 74.2739 25.498C73.911 24.8886 73.427 23.9867 73.1729 23.487C72.9189 22.9751 72.6648 22.3535 72.5922 22.0853C72.5196 21.8172 72.5075 21.5247 72.5438 21.4272C72.6043 21.3053 72.7616 21.2809 73.0519 21.3297L73.4754 21.4028C72.5438 20.7446 71.8541 20.3912 71.3581 20.1962C70.862 20.0133 69.9667 19.7452 69.3618 19.5989C68.7689 19.4649 67.5953 19.2699 66.7605 19.1724C65.9257 19.0627 64.3286 18.953 63.1913 18.9164C62.054 18.8677 60.4328 18.7214 59.5616 18.5873L57.9888 18.3192C56.7668 17.1735 55.8957 16.4178 55.2665 15.9059C54.6374 15.4062 53.5969 14.6262 52.9677 14.1874C52.3386 13.7608 51.165 13.0173 50.3665 12.5664C49.5679 12.1032 48.2613 11.4329 47.4627 11.0672C46.6642 10.7138 45.418 10.2019 44.68 9.93375C43.954 9.66561 42.7563 9.28777 42.0182 9.09276C41.2923 8.89775 39.8888 8.60524 38.9088 8.43461C37.6989 8.22741 36.247 8.08115 34.4322 8.00803Z" fill="#7BAEFB"/>
<path d="M37.9113 33.228L37.9046 33.2253L37.9123 33.2333C38.2494 35.0498 38.3417 38.3687 38.1475 40.976C38.1039 41.1244 38.0678 41.2454 38.0498 41.306C37.9772 41.501 38.2555 41.5132 42.9256 41.5132C43.4272 41.5132 43.8781 41.5132 44.2834 41.513L51.0644 41.7023C51.924 41.7445 53.763 41.795 55.7612 41.8335L56.2756 41.8478L56.2852 41.8431C59.3411 41.8908 62.3678 41.8661 64.4012 41.7692C66.204 41.696 68.7084 41.5498 69.9667 41.4523C71.2371 41.3548 73.0519 41.1963 74.0199 41.0866C74.9878 40.9769 76.4033 40.7698 77.1656 40.6113C77.9278 40.4651 78.8473 40.2091 79.2103 40.0506C79.5733 39.88 79.912 39.6606 79.9604 39.5387C80.033 39.3925 80.0088 39.2462 79.8636 39.0878C79.7426 38.9415 79.4886 38.8075 79.2829 38.7587C79.0893 38.7221 78.7384 38.6003 78.5207 38.4906C78.3029 38.3809 78.0972 38.198 78.073 38.0762C78.0367 37.9665 78.1093 37.6861 78.2303 37.4668C78.3513 37.2474 78.7263 36.8817 79.0772 36.6502C79.5854 36.3089 79.7063 36.1504 79.7063 35.8823C79.7063 35.6995 79.5733 35.2851 79.4039 34.9682C79.2466 34.6513 79.0167 34.2613 78.8957 34.115L78.6779 33.8347C78.2787 35.0901 78.0488 35.4192 77.4801 35.992C76.9357 36.5527 76.4759 36.8695 75.7137 37.2352C75.1451 37.5033 74.3586 37.808 73.9594 37.9177C73.5601 38.0152 72.689 38.1859 72.0235 38.2834C71.1403 38.4296 69.7973 38.4784 67.0025 38.4784C64.9094 38.4784 62.4533 38.4174 61.558 38.3565C60.6627 38.2834 59.6221 38.1737 59.2592 38.0884C58.8962 38.0152 58.3276 37.8568 57.9888 37.7349C57.6621 37.613 57.1903 37.3571 56.9483 37.1743C56.7063 36.9792 56.2828 36.5527 56.0167 36.2236L55.5206 35.6142C50.2092 35.4801 47.8862 35.3582 46.9183 35.2607C46.7638 35.2451 46.5994 35.2277 46.4295 35.209C44.0392 34.8628 41.1277 34.3479 39.2368 33.751C39.1253 33.7118 39.023 33.6744 38.933 33.6397L37.9231 33.2327L37.911 33.2263L37.9113 33.228Z" fill="#7BAEFB"/>
<path d="M23.1765 9.67198C23.1998 9.66985 23.2686 9.65765 23.3799 9.6379C25.4954 9.26284 42.97 6.16474 55.4362 17.6032C50.0474 17.2348 37.9181 16.908 25.5595 18.1375L23.0591 9.77288C23.0596 9.77074 23.0602 9.76853 23.0608 9.76625C23.066 9.74751 23.0735 9.73079 23.0822 9.71776C23.0904 9.70559 23.0992 9.69708 23.1096 9.69074C23.1194 9.68472 23.1391 9.6754 23.1765 9.67198Z" fill="#7BAEFB"/>
<path d="M20.1007 10.392L22.6216 18.9149C21.877 19.6599 20.8747 19.9452 19.734 19.8873C18.5236 19.8259 17.1817 19.377 15.9048 18.7059C14.6301 18.036 13.4401 17.1551 12.5351 16.2522C11.668 15.3871 11.0988 14.538 10.9282 13.8619C11.6515 12.6246 13.2121 11.7735 14.9972 11.2213C16.8122 10.6599 18.7776 10.4326 20.1007 10.392Z" fill="#7BAEFB"/>
<ellipse cx="3.702" cy="28.4351" rx="3.46933" ry="7.78856" transform="rotate(-1.72347 3.702 28.4351)" fill="#C6DCFD"/>
<ellipse cx="4.8451" cy="9.43277" rx="4.8451" ry="9.43277" transform="matrix(0.999257 -0.0385336 0.0523373 0.998629 29.3345 26.125)" fill="#DCDCDC"/>
<ellipse cx="2.32449" cy="5.21842" rx="2.32449" ry="5.21842" transform="matrix(0.99954 -0.0303145 0.0298388 0.999555 1.2207 23.2886)" fill="#428BF9"/>
<ellipse cx="3.24627" cy="6.32006" rx="3.24627" ry="6.32006" transform="matrix(0.999257 -0.0385336 0.0523373 0.998629 31.0957 29.1719)" fill="#B8B8B8"/>
<rect x="14.8018" y="0.688525" width="48.2287" height="48.6229" rx="6.19673" fill="#428BF9" stroke="white" stroke-width="1.37705"/>
<mask id="mask0_253_1328" style="mask-type:alpha" maskUnits="userSpaceOnUse" x="14" y="0" width="50" height="50">
<rect x="14.8018" y="0.688525" width="48.2287" height="48.6229" rx="6.19673" fill="#FFC700" stroke="black" stroke-width="1.37705"/>
</mask>
<g mask="url(#mask0_253_1328)">
<path d="M34.4322 7.89426C32.944 7.82113 31.2502 7.78455 30.6452 7.79674C30.0524 7.80893 28.661 7.85769 27.56 7.90644C26.459 7.95519 24.8862 8.16601 24.0513 8.25133C23.2165 8.32446 21.8009 8.49509 20.9056 8.61697C20.0103 8.73885 18.6189 8.98261 17.8204 9.15325C17.0219 9.33607 15.7999 9.66515 15.0981 9.90891C14.3964 10.1405 13.4164 10.5549 12.9203 10.8108C12.4243 11.0668 11.7467 11.5177 11.4201 11.8103C11.0934 12.0906 10.6699 12.5537 10.4763 12.8219C10.2828 13.09 10.1376 13.3582 10.1376 13.4313C10.1376 13.4448 10.1477 13.4475 10.1661 13.4408C10.095 13.5446 10.0237 13.6588 9.9571 13.7806C9.87122 13.7536 9.70147 13.736 9.50843 13.736C9.21805 13.7482 8.77039 13.8335 8.50422 13.931C8.23804 14.0285 7.72988 14.321 7.36692 14.577C6.72567 15.0157 6.68938 15.0279 6.03604 14.9304C5.63677 14.8817 5.08022 14.8817 4.69306 14.9548C4.33009 15.0279 3.83404 15.1742 3.60416 15.2839C3.37428 15.4058 2.97501 15.6983 2.73303 15.9542C2.47896 16.2102 2.16438 16.6368 2.0313 16.9049C1.89821 17.173 1.70462 17.7581 1.60783 18.209C1.49894 18.66 1.42635 19.3547 1.45055 19.7447L1.48684 20.4638C2.11599 19.6107 2.46685 19.245 2.67254 19.111C2.89032 18.9769 3.26539 18.855 3.51946 18.855C3.85823 18.855 4.07601 18.9525 4.41478 19.245C4.68096 19.4888 5.01973 20.0129 5.2738 20.5613C5.50368 21.0611 5.87875 22.1824 6.09653 23.0599C6.31431 23.9253 6.59259 25.3269 6.73778 26.1679C6.84283 26.8221 6.97804 27.6738 7.072 28.2733L7.10387 28.5081C7.20125 29.2763 7.36208 30.3948 7.50685 31.4016C7.66999 32.5361 7.81272 33.5288 7.82127 33.7184C7.8364 34.054 18.9134 36.8244 25.4808 38.4195C26.1686 38.6169 26.7131 38.7446 26.7131 38.7217C26.7131 38.7206 26.713 38.7193 26.7129 38.7177L26.7204 38.7196C26.4111 37.4184 25.9257 33.8485 26.4581 29.9776C26.4663 29.9186 26.4746 29.8601 26.4832 29.8022C26.4955 29.7434 26.5077 29.6812 26.5195 29.6171C26.5679 29.3002 26.7252 28.6299 26.8462 28.1424C26.9742 27.6736 27.214 27.0019 27.4044 26.6042C27.4407 26.5328 27.4778 26.4634 27.5156 26.396C27.7207 26.0421 28.0303 25.6227 28.2496 25.4122C28.5037 25.1563 28.9877 24.8394 29.3144 24.6809C29.7862 24.4737 30.1492 24.4006 30.9477 24.4006C31.9035 24.4006 32.0366 24.425 32.7626 24.8272C33.186 25.0588 33.9724 25.6682 34.5169 26.1801C35.0492 26.6798 35.8115 27.533 36.2107 28.0449C36.7189 28.703 37.1061 29.0809 37.4811 29.2759C37.7836 29.4221 38.7394 29.7756 39.5984 30.0437C40.4696 30.2997 41.8246 30.6653 42.6232 30.8481C43.4217 31.031 44.8978 31.3357 45.8899 31.5307C46.8941 31.7135 48.4911 31.9938 49.4591 32.1401C50.427 32.2863 51.2981 32.457 51.3949 32.5057C51.5159 32.5707 51.3344 32.656 50.8504 32.7617C50.306 32.8836 48.9146 32.9323 45.3212 32.9323C42.6837 32.9323 40.5543 32.9689 40.6026 33.0054C40.651 33.0542 41.0745 33.1517 41.5343 33.2126C42.0061 33.2858 43.3854 33.4076 44.6195 33.493C45.9746 33.5783 48.2613 33.6026 50.427 33.5661C52.7379 33.5173 54.4075 33.432 55.1455 33.3101C55.7747 33.2004 57.0088 33.0664 57.8678 32.9932C58.7389 32.9201 60.8078 32.8104 62.4654 32.7495C64.135 32.6885 68.5995 32.5667 72.3865 32.4935C76.1856 32.4204 79.3797 32.3107 79.5007 32.2498C79.6096 32.1888 79.7547 31.9573 79.8152 31.7379C79.8636 31.5185 79.8757 30.9822 79.8273 30.5556C79.7789 30.1168 79.6217 29.5074 79.4644 29.2149C79.3192 28.9102 78.9199 28.2642 78.6053 27.7767C78.2787 27.2892 78.0004 26.8992 77.9883 26.8992C77.966 26.8992 77.9746 27.1901 77.9855 27.5608L77.9883 27.6548C78.0246 28.2642 77.9883 28.4593 77.8068 28.6421C77.6858 28.7518 77.4559 28.8493 77.2866 28.8493C77.1172 28.8493 76.7179 28.7152 76.3792 28.5324L75.7742 28.2155C74.1771 28.6055 73.064 28.8005 72.2655 28.898C71.467 28.9955 69.8941 29.1296 68.7568 29.2027C67.6316 29.2759 65.8047 29.349 64.7037 29.3856C63.6027 29.4099 60.3723 29.3977 57.5048 29.349C53.004 29.2637 52.2539 29.2759 51.9393 29.4343C51.6974 29.5562 51.0803 29.6415 50.1245 29.6781C48.7573 29.7268 48.5758 29.7024 47.0393 29.3002C46.144 29.0565 44.8131 28.6543 44.075 28.4105C43.3491 28.1667 42.4175 27.8133 42.0182 27.6305C41.619 27.4476 41.1108 27.1186 40.893 26.887C40.6631 26.6554 40.3607 26.2532 40.2034 25.9851C40.0461 25.7169 39.7557 24.9978 39.55 24.4006C39.3444 23.7912 39.1387 22.9624 39.0903 22.548L38.9935 21.7923C39.5379 21.7721 39.6592 21.7471 40.0461 21.5973C40.0949 21.5669 40.1321 21.5294 40.1619 21.4994C40.1807 21.4804 40.1966 21.4644 40.2106 21.455L40.2116 21.4542C37.5262 20.3504 30.2228 18.6815 23.1327 19.3125C22.2218 20.2645 20.9984 20.5982 19.7017 20.5324C18.369 20.4648 16.9354 19.976 15.6083 19.2786C14.2789 18.5799 13.0363 17.6612 12.084 16.7111C11.1425 15.7718 10.4439 14.7611 10.2736 13.8718L10.2518 13.7582L10.3065 13.6566C11.1284 12.128 12.9409 11.1808 14.809 10.6029C16.6941 10.0198 18.7213 9.78679 20.0862 9.74534C20.3783 9.73647 20.633 9.92911 20.7146 10.2049L23.2145 18.6567C23.8138 18.6058 24.4144 18.5709 25.0134 18.5504L22.4132 9.85218V9.80455C22.4132 9.68255 22.4469 9.51054 22.5509 9.3554C22.6637 9.18718 22.8516 9.05226 23.1184 9.02781C23.1169 9.02795 23.1183 9.02772 23.1242 9.02673C23.133 9.02527 23.1519 9.02215 23.1859 9.01613C23.2103 9.0118 23.2378 9.00685 23.2696 9.00114C23.3033 8.99509 23.3418 8.98818 23.3865 8.98021C23.5565 8.94996 23.7956 8.90834 24.0974 8.86069C24.7009 8.76538 25.5541 8.64604 26.6074 8.54464C27.6152 8.44763 28.8068 8.36698 30.1385 8.33959L30.1613 8.33663L30.209 8.33819C31.6421 8.31084 33.2355 8.34544 34.9356 8.48743C41.5602 9.04069 49.8304 11.2271 56.5397 17.7598L57.1834 18.3866L56.2912 18.3144C51.7926 17.9502 40.2239 17.5349 28.0146 18.561C33.4242 18.7746 38.3 19.973 40.4432 20.8514L40.444 20.8497C40.8953 21.0229 41.3096 21.19 41.5948 21.317C42.2239 21.5851 43.5064 22.1946 44.438 22.6699C45.3696 23.1574 46.9062 24.0593 47.8499 24.7053C48.7936 25.3391 50.2818 26.4726 51.1408 27.2283L52.7258 28.6055L52.7285 28.6054V28.6284H58.0354C60.1446 28.6935 62.0365 28.7152 63.6753 28.7152C66.1435 28.7274 68.7205 28.6665 69.4223 28.5933C70.124 28.5324 71.2129 28.3861 71.8421 28.2886C72.4712 28.1789 73.4028 27.9961 73.8989 27.862C74.3949 27.7402 74.9636 27.5817 75.1451 27.5086L75.4717 27.3867C75.0362 26.7651 74.6248 26.0948 74.2739 25.4975C73.911 24.8881 73.427 23.9862 73.1729 23.4865C72.9189 22.9746 72.6648 22.353 72.5922 22.0849C72.5196 21.8167 72.5075 21.5242 72.5438 21.4267C72.6043 21.3048 72.7616 21.2805 73.0519 21.3292L73.4754 21.4023C72.5438 20.7442 71.8541 20.3907 71.3581 20.1957C70.862 20.0129 69.9667 19.7447 69.3618 19.5985C68.7689 19.4644 67.5953 19.2694 66.7605 19.1719C65.9257 19.0622 64.3286 18.9525 63.1913 18.9159C62.054 18.8672 60.4328 18.7209 59.5616 18.5869L57.9888 18.3187C56.7668 17.173 55.8957 16.4174 55.2665 15.9055C54.6374 15.4058 53.5969 14.6257 52.9677 14.1869C52.3386 13.7604 51.165 13.0169 50.3665 12.5659C49.568 12.1028 48.2613 11.4324 47.4627 11.0668C46.6642 10.7133 45.418 10.2014 44.68 9.93329C43.954 9.66515 42.7563 9.28731 42.0182 9.0923C41.2923 8.89729 39.8888 8.60478 38.9088 8.43415C37.6989 8.22695 36.247 7.96738 34.4322 7.89426Z" fill="white"/>
<path d="M37.9113 33.2275L37.9046 33.2248L37.9123 33.2328C38.2494 35.0493 38.3417 38.3683 38.1475 40.9756C38.1039 41.1239 38.0678 41.2449 38.0498 41.3056C37.9772 41.5006 38.2555 41.5128 42.9256 41.5128C43.4272 41.5128 43.8781 41.5128 44.2834 41.5125L51.0644 41.7019C51.924 41.744 53.763 41.7945 55.7612 41.833L56.2756 41.8474L56.2852 41.8426C59.3411 41.8903 62.3678 41.8657 64.4012 41.7687C66.204 41.6956 68.7084 41.5493 69.9667 41.4518C71.2371 41.3543 73.0519 41.1959 74.0199 41.0862C74.9878 40.9765 76.4033 40.7693 77.1656 40.6108C77.9278 40.4646 78.8473 40.2086 79.2103 40.0502C79.5733 39.8795 79.912 39.6602 79.9604 39.5383C80.033 39.392 80.0088 39.2458 79.8636 39.0873C79.7426 38.9411 79.4886 38.807 79.2829 38.7582C79.0893 38.7217 78.7384 38.5998 78.5207 38.4901C78.3029 38.3804 78.0972 38.1976 78.073 38.0757C78.0367 37.966 78.1093 37.6857 78.2303 37.4663C78.3513 37.2469 78.7263 36.8813 79.0772 36.6497C79.5854 36.3084 79.7064 36.15 79.7064 35.8818C79.7064 35.699 79.5733 35.2846 79.4039 34.9677C79.2466 34.6508 79.0167 34.2608 78.8957 34.1146L78.6779 33.8342C78.2787 35.0896 78.0488 35.4187 77.4801 35.9915C76.9357 36.5522 76.4759 36.8691 75.7137 37.2347C75.1451 37.5029 74.3586 37.8076 73.9594 37.9173C73.5601 38.0148 72.689 38.1854 72.0235 38.2829C71.1403 38.4292 69.7973 38.4779 67.0025 38.4779C64.9094 38.4779 62.4533 38.417 61.558 38.356C60.6627 38.2829 59.6221 38.1732 59.2592 38.0879C58.8962 38.0148 58.3276 37.8563 57.9888 37.7344C57.6621 37.6126 57.1903 37.3566 56.9483 37.1738C56.7063 36.9788 56.2829 36.5522 56.0167 36.2231L55.5206 35.6137C50.2092 35.4796 47.8862 35.3578 46.9183 35.2602C46.7638 35.2447 46.5994 35.2273 46.4295 35.2085C44.0392 34.8624 41.1278 34.3474 39.2368 33.7506C39.1253 33.7114 39.023 33.6739 38.933 33.6392L37.9231 33.2323L37.911 33.2258L37.9113 33.2275Z" fill="white"/>
<path d="M23.1765 9.67152C23.1998 9.66939 23.2686 9.65719 23.3799 9.63744C25.4954 9.26238 42.97 6.16428 55.4362 17.6028C50.0474 17.2343 37.9181 16.9075 25.5595 18.1371L23.0591 9.77242C23.0596 9.77028 23.0602 9.76807 23.0608 9.76579C23.066 9.74705 23.0735 9.73033 23.0822 9.7173C23.0904 9.70513 23.0992 9.69662 23.1096 9.69028C23.1194 9.68426 23.1391 9.67494 23.1765 9.67152Z" fill="white"/>
<path d="M20.1007 10.3916L22.6216 18.9144C21.877 19.6595 20.8747 19.9448 19.734 19.8869C18.5236 19.8254 17.1817 19.3766 15.9048 18.7054C14.6301 18.0355 13.4401 17.1547 12.5351 16.2518C11.668 15.3866 11.0988 14.5375 10.9282 13.8614C11.6515 12.6241 13.2121 11.773 14.9972 11.2209C16.8122 10.6594 18.7776 10.4322 20.1007 10.3916Z" fill="white"/>
<ellipse cx="4.8451" cy="9.43277" rx="4.8451" ry="9.43277" transform="matrix(0.999257 -0.0385336 0.0523373 0.998629 26.7686 26.1245)" fill="white"/>
<ellipse cx="3.24627" cy="6.32006" rx="3.24627" ry="6.32006" transform="matrix(0.999257 -0.0385336 0.0523373 0.998629 28.5293 29.1714)" fill="#428BF9"/>
</g>
<mask id="mask1_253_1328" style="mask-type:alpha" maskUnits="userSpaceOnUse" x="14" y="0" width="50" height="50">
<path d="M14.8018 13.7705C14.8018 10.5053 14.8033 8.12566 15.0477 6.30726C15.2896 4.50866 15.7577 3.36258 16.6168 2.5035C17.4759 1.64443 18.6219 1.17628 20.4205 0.934466C22.2389 0.689987 24.6186 0.688525 27.8838 0.688525H49.9485C53.2137 0.688525 55.5933 0.689987 57.4118 0.934466C59.2104 1.17628 60.3564 1.64443 61.2155 2.5035C62.0746 3.36258 62.5427 4.50866 62.7845 6.30726C63.029 8.12566 63.0305 10.5053 63.0305 13.7705V36.2295C63.0305 39.4947 63.029 41.8743 62.7845 43.6927C62.5427 45.4913 62.0746 46.6374 61.2155 47.4965C60.3564 48.3556 59.2104 48.8237 57.4118 49.0655C55.5933 49.31 53.2137 49.3115 49.9485 49.3115H27.8838C24.6186 49.3115 22.2389 49.31 20.4205 49.0655C18.6219 48.8237 17.4759 48.3556 16.6168 47.4965C15.7577 46.6374 15.2896 45.4913 15.0477 43.6927C14.8033 41.8743 14.8018 39.4947 14.8018 36.2295V13.7705Z" fill="#FFC700" stroke="black" stroke-width="1.37705"/>
</mask>
<g mask="url(#mask1_253_1328)">
<mask id="mask2_253_1328" style="mask-type:alpha" maskUnits="userSpaceOnUse" x="0" y="7" width="80" height="38">
<path d="M34.4322 7.89426C32.944 7.82113 31.2502 7.78455 30.6452 7.79674C30.0524 7.80893 28.661 7.85769 27.56 7.90644C26.459 7.95519 24.8862 8.16601 24.0513 8.25133C23.2165 8.32446 21.8009 8.49509 20.9056 8.61697C20.0103 8.73885 18.6189 8.98261 17.8204 9.15325C17.0219 9.33607 15.7999 9.66515 15.0981 9.90891C14.3964 10.1405 13.4164 10.5549 12.9203 10.8108C12.4243 11.0668 11.7467 11.5177 11.4201 11.8103C11.0934 12.0906 10.6699 12.5537 10.4763 12.8219C10.2828 13.09 10.1376 13.3582 10.1376 13.4313C10.1376 13.4448 10.1477 13.4475 10.1661 13.4408C10.095 13.5446 10.0237 13.6588 9.9571 13.7806C9.87122 13.7536 9.70147 13.736 9.50843 13.736C9.21805 13.7482 8.77039 13.8335 8.50422 13.931C8.23804 14.0285 7.72988 14.321 7.36692 14.577C6.72567 15.0157 6.68938 15.0279 6.03604 14.9304C5.63677 14.8817 5.08022 14.8817 4.69306 14.9548C4.33009 15.0279 3.83404 15.1742 3.60416 15.2839C3.37428 15.4058 2.97501 15.6983 2.73303 15.9542C2.47895 16.2102 2.16438 16.6368 2.0313 16.9049C1.89821 17.173 1.70462 17.7581 1.60783 18.209C1.49894 18.66 1.42635 19.3547 1.45055 19.7447L1.48684 20.4638C2.11599 19.6107 2.46686 19.245 2.67254 19.111C2.89032 18.9769 3.26539 18.855 3.51946 18.855C3.85823 18.855 4.07601 18.9525 4.41478 19.245C4.68096 19.4888 5.01973 20.0129 5.2738 20.5613C5.50368 21.0611 5.87875 22.1824 6.09653 23.0599C6.31431 23.9253 6.59259 25.3269 6.73778 26.1679C6.84283 26.8221 6.97804 27.6738 7.072 28.2733L7.10387 28.5081C7.20125 29.2763 7.36208 30.3948 7.50685 31.4016C7.66999 32.5361 7.81272 33.5288 7.82127 33.7184C7.8364 34.054 18.9134 36.8244 25.4808 38.4195C26.1686 38.6169 26.7131 38.7446 26.7131 38.7217C26.7131 38.7206 26.713 38.7193 26.7129 38.7177L26.7204 38.7196C26.4111 37.4184 25.9257 33.8485 26.4582 29.9776C26.4663 29.9186 26.4746 29.8601 26.4832 29.8022C26.4955 29.7434 26.5077 29.6812 26.5195 29.6171C26.5679 29.3002 26.7252 28.6299 26.8462 28.1424C26.9742 27.6736 27.214 27.0019 27.4044 26.6042C27.4407 26.5328 27.4778 26.4634 27.5156 26.396C27.7207 26.0421 28.0303 25.6227 28.2497 25.4122C28.5037 25.1563 28.9877 24.8394 29.3144 24.6809C29.7862 24.4737 30.1492 24.4006 30.9477 24.4006C31.9035 24.4006 32.0366 24.425 32.7626 24.8272C33.186 25.0588 33.9724 25.6682 34.5169 26.1801C35.0492 26.6798 35.8115 27.533 36.2107 28.0449C36.7189 28.703 37.1061 29.0809 37.4811 29.2759C37.7836 29.4221 38.7394 29.7756 39.5984 30.0437C40.4696 30.2997 41.8246 30.6653 42.6232 30.8481C43.4217 31.031 44.8978 31.3357 45.8899 31.5307C46.8941 31.7135 48.4911 31.9938 49.4591 32.1401C50.427 32.2863 51.2981 32.457 51.3949 32.5057C51.5159 32.5707 51.3344 32.656 50.8504 32.7617C50.306 32.8835 48.9146 32.9323 45.3212 32.9323C42.6837 32.9323 40.5543 32.9689 40.6027 33.0054C40.651 33.0542 41.0745 33.1517 41.5343 33.2126C42.0061 33.2858 43.3854 33.4076 44.6195 33.493C45.9746 33.5783 48.2613 33.6026 50.427 33.5661C52.7379 33.5173 54.4075 33.432 55.1456 33.3101C55.7747 33.2004 57.0088 33.0664 57.8678 32.9932C58.7389 32.9201 60.8078 32.8104 62.4654 32.7495C64.135 32.6885 68.5995 32.5667 72.3865 32.4935C76.1856 32.4204 79.3797 32.3107 79.5007 32.2498C79.6096 32.1888 79.7547 31.9573 79.8152 31.7379C79.8636 31.5185 79.8757 30.9822 79.8273 30.5556C79.7789 30.1168 79.6217 29.5074 79.4644 29.2149C79.3192 28.9102 78.9199 28.2642 78.6053 27.7767C78.2787 27.2892 78.0004 26.8992 77.9883 26.8992C77.966 26.8992 77.9746 27.1901 77.9855 27.5608L77.9883 27.6548C78.0246 28.2642 77.9883 28.4593 77.8068 28.6421C77.6858 28.7518 77.4559 28.8493 77.2866 28.8493C77.1172 28.8493 76.7179 28.7152 76.3792 28.5324L75.7742 28.2155C74.1771 28.6055 73.064 28.8005 72.2655 28.898C71.467 28.9955 69.8941 29.1296 68.7568 29.2027C67.6316 29.2759 65.8047 29.349 64.7037 29.3856C63.6027 29.4099 60.3723 29.3977 57.5048 29.349C53.0041 29.2637 52.2539 29.2759 51.9393 29.4343C51.6974 29.5562 51.0803 29.6415 50.1245 29.6781C48.7573 29.7268 48.5758 29.7024 47.0393 29.3002C46.144 29.0565 44.8131 28.6543 44.075 28.4105C43.3491 28.1667 42.4175 27.8133 42.0182 27.6305C41.619 27.4476 41.1108 27.1186 40.893 26.887C40.6631 26.6554 40.3607 26.2532 40.2034 25.9851C40.0461 25.7169 39.7557 24.9978 39.55 24.4006C39.3444 23.7912 39.1387 22.9624 39.0903 22.548L38.9935 21.7923C39.5379 21.7721 39.6592 21.7471 40.0461 21.5973C40.0949 21.5669 40.1321 21.5294 40.1619 21.4994C40.1807 21.4804 40.1966 21.4644 40.2106 21.455L40.2116 21.4542C37.5262 20.3504 30.2228 18.6815 23.1327 19.3125C22.2218 20.2645 20.9984 20.5982 19.7017 20.5324C18.369 20.4648 16.9354 19.976 15.6083 19.2786C14.2789 18.5799 13.0363 17.6612 12.084 16.7111C11.1425 15.7718 10.4439 14.7611 10.2736 13.8718L10.2518 13.7582L10.3065 13.6566C11.1284 12.128 12.9409 11.1808 14.809 10.6029C16.6941 10.0198 18.7213 9.78679 20.0862 9.74534C20.3783 9.73647 20.633 9.92911 20.7146 10.2049L23.2145 18.6567C23.8138 18.6058 24.4144 18.5709 25.0134 18.5504L22.4132 9.85218V9.80455C22.4132 9.68255 22.4469 9.51054 22.5509 9.3554C22.6637 9.18718 22.8516 9.05226 23.1185 9.02781C23.1169 9.02795 23.1183 9.02772 23.1242 9.02673C23.133 9.02527 23.1519 9.02215 23.1859 9.01613C23.2103 9.0118 23.2378 9.00685 23.2696 9.00114C23.3033 8.99509 23.3418 8.98818 23.3865 8.98021C23.5565 8.94996 23.7956 8.90834 24.0974 8.86069C24.7009 8.76538 25.5541 8.64604 26.6074 8.54464C27.6152 8.44763 28.8068 8.36698 30.1385 8.33959L30.1613 8.33663L30.209 8.33819C31.6421 8.31084 33.2355 8.34544 34.9356 8.48743C41.5602 9.04069 49.8304 11.2271 56.5397 17.7598L57.1834 18.3866L56.2912 18.3144C51.7926 17.9502 40.2239 17.5349 28.0146 18.561C33.4242 18.7746 38.3 19.973 40.4432 20.8514L40.444 20.8497C40.8953 21.0229 41.3096 21.19 41.5948 21.317C42.2239 21.5851 43.5064 22.1946 44.438 22.6699C45.3696 23.1574 46.9062 24.0593 47.8499 24.7053C48.7936 25.3391 50.2818 26.4726 51.1408 27.2283L52.7258 28.6055L52.7285 28.6054V28.6284H58.0354C60.1446 28.6935 62.0365 28.7152 63.6753 28.7152C66.1435 28.7274 68.7205 28.6665 69.4223 28.5933C70.124 28.5324 71.2129 28.3861 71.8421 28.2886C72.4712 28.1789 73.4028 27.9961 73.8989 27.862C74.3949 27.7402 74.9636 27.5817 75.1451 27.5086L75.4717 27.3867C75.0362 26.7651 74.6248 26.0948 74.2739 25.4975C73.911 24.8881 73.427 23.9862 73.1729 23.4865C72.9189 22.9746 72.6648 22.353 72.5922 22.0849C72.5196 21.8167 72.5075 21.5242 72.5438 21.4267C72.6043 21.3048 72.7616 21.2805 73.0519 21.3292L73.4754 21.4023C72.5438 20.7442 71.8542 20.3907 71.3581 20.1957C70.862 20.0129 69.9667 19.7447 69.3618 19.5985C68.7689 19.4644 67.5953 19.2694 66.7605 19.1719C65.9257 19.0622 64.3286 18.9525 63.1913 18.9159C62.054 18.8672 60.4328 18.7209 59.5617 18.5869L57.9888 18.3187C56.7668 17.173 55.8957 16.4174 55.2665 15.9055C54.6374 15.4058 53.5969 14.6257 52.9677 14.1869C52.3386 13.7604 51.165 13.0169 50.3665 12.5659C49.568 12.1028 48.2613 11.4324 47.4627 11.0668C46.6642 10.7133 45.418 10.2014 44.68 9.93329C43.954 9.66515 42.7563 9.28731 42.0182 9.0923C41.2923 8.89729 39.8888 8.60478 38.9088 8.43415C37.6989 8.22695 36.247 7.96738 34.4322 7.89426Z" fill="black"/>
<path d="M37.9113 33.2275L37.9046 33.2248L37.9123 33.2328C38.2494 35.0493 38.3417 38.3683 38.1475 40.9756C38.1039 41.1239 38.0678 41.2449 38.0498 41.3056C37.9772 41.5006 38.2555 41.5128 42.9256 41.5128C43.4272 41.5128 43.8781 41.5128 44.2834 41.5125L51.0644 41.7019C51.924 41.744 53.763 41.7945 55.7612 41.833L56.2757 41.8474L56.2852 41.8426C59.3411 41.8903 62.3678 41.8657 64.4012 41.7687C66.204 41.6956 68.7084 41.5493 69.9667 41.4518C71.2371 41.3543 73.052 41.1959 74.0199 41.0862C74.9878 40.9765 76.4034 40.7693 77.1656 40.6108C77.9278 40.4646 78.8473 40.2086 79.2103 40.0502C79.5733 39.8795 79.912 39.6602 79.9604 39.5383C80.033 39.392 80.0088 39.2458 79.8636 39.0873C79.7426 38.9411 79.4886 38.807 79.2829 38.7582C79.0893 38.7217 78.7384 38.5998 78.5207 38.4901C78.3029 38.3804 78.0972 38.1976 78.073 38.0757C78.0367 37.966 78.1093 37.6857 78.2303 37.4663C78.3513 37.2469 78.7263 36.8813 79.0772 36.6497C79.5854 36.3084 79.7063 36.15 79.7063 35.8818C79.7063 35.699 79.5733 35.2846 79.4039 34.9677C79.2466 34.6508 79.0167 34.2608 78.8957 34.1146L78.6779 33.8342C78.2787 35.0896 78.0488 35.4187 77.4802 35.9915C76.9357 36.5522 76.4759 36.8691 75.7137 37.2347C75.1451 37.5029 74.3586 37.8076 73.9594 37.9173C73.5601 38.0148 72.689 38.1854 72.0235 38.2829C71.1403 38.4292 69.7973 38.4779 67.0025 38.4779C64.9094 38.4779 62.4533 38.417 61.558 38.356C60.6627 38.2829 59.6222 38.1732 59.2592 38.0879C58.8962 38.0148 58.3276 37.8563 57.9888 37.7344C57.6621 37.6126 57.1903 37.3566 56.9483 37.1738C56.7063 36.9788 56.2829 36.5522 56.0167 36.2231L55.5206 35.6137C50.2092 35.4796 47.8862 35.3578 46.9183 35.2602C46.7638 35.2447 46.5994 35.2273 46.4295 35.2085C44.0392 34.8624 41.1278 34.3474 39.2368 33.7506C39.1253 33.7114 39.023 33.6739 38.933 33.6392L37.9231 33.2323L37.911 33.2258L37.9113 33.2275Z" fill="black"/>
<path d="M23.1765 9.67152C23.1998 9.66939 23.2686 9.65719 23.3799 9.63744C25.4954 9.26238 42.97 6.16428 55.4362 17.6028C50.0474 17.2343 37.9181 16.9075 25.5595 18.1371L23.0591 9.77242C23.0596 9.77028 23.0602 9.76807 23.0608 9.76579C23.066 9.74705 23.0735 9.73033 23.0822 9.7173C23.0904 9.70513 23.0992 9.69662 23.1096 9.69028C23.1194 9.68426 23.1391 9.67494 23.1765 9.67152Z" fill="black"/>
<path d="M20.1007 10.3916L22.6216 18.9144C21.877 19.6595 20.8747 19.9448 19.734 19.8869C18.5236 19.8254 17.1817 19.3766 15.9048 18.7054C14.6301 18.0355 13.4401 17.1547 12.5351 16.2518C11.668 15.3866 11.0988 14.5375 10.9282 13.8614C11.6515 12.6241 13.2121 11.773 14.9972 11.2209C16.8122 10.6594 18.7776 10.4322 20.1007 10.3916Z" fill="black"/>
<ellipse cx="4.8451" cy="9.43277" rx="4.8451" ry="9.43277" transform="matrix(0.999257 -0.0385336 0.0523373 0.998629 26.7686 26.1245)" fill="black"/>
<ellipse cx="3.24627" cy="6.32006" rx="3.24627" ry="6.32006" transform="matrix(0.999257 -0.0385336 0.0523373 0.998629 28.5293 29.1714)" fill="#FFC700"/>
</mask>
<g mask="url(#mask2_253_1328)">
<g filter="url(#filter0_f_253_1328)">
<ellipse cx="10.0414" cy="23.1472" rx="11.0106" ry="52.2713" fill="#428BF9"/>
</g>
</g>
</g>
<path fill-rule="evenodd" clip-rule="evenodd" d="M51.7153 41.7294C52.6906 41.7648 54.1758 41.803 55.7612 41.8335L56.2757 41.8479L56.2852 41.8431C59.3411 41.8908 62.3678 41.8662 64.4012 41.7692C66.204 41.6961 68.7084 41.5498 69.9667 41.4523C71.2371 41.3548 73.052 41.1963 74.0199 41.0866C74.9878 40.977 76.4034 40.7698 77.1656 40.6113C77.9278 40.4651 78.8473 40.2091 79.2103 40.0507C79.5733 39.88 79.912 39.6606 79.9604 39.5388C80.033 39.3925 80.0088 39.2463 79.8637 39.0878C79.7427 38.9416 79.4886 38.8075 79.2829 38.7587C79.0893 38.7222 78.7385 38.6003 78.5207 38.4906C78.3029 38.3809 78.0972 38.1981 78.073 38.0762C78.0367 37.9665 78.1093 37.6862 78.2303 37.4668C78.3513 37.2474 78.7264 36.8817 79.0772 36.6502C79.5854 36.3089 79.7064 36.1505 79.7064 35.8823C79.7064 35.6995 79.5733 35.2851 79.4039 34.9682C79.2466 34.6513 79.0167 34.2613 78.8957 34.115L78.678 33.8347C78.2787 35.0901 78.0488 35.4192 77.4802 35.992C76.9357 36.5527 76.476 36.8696 75.7137 37.2352C75.1451 37.5033 74.3586 37.8081 73.9594 37.9177C73.5601 38.0152 72.689 38.1859 72.0235 38.2834C71.1403 38.4296 69.7973 38.4784 67.0025 38.4784C64.9094 38.4784 62.4533 38.4175 61.558 38.3565C60.6627 38.2834 59.6222 38.1737 59.2592 38.0884C58.8962 38.0152 58.3276 37.8568 57.9888 37.7349C57.6621 37.613 57.1903 37.3571 56.9483 37.1743C56.7063 36.9793 56.2829 36.5527 56.0167 36.2236L55.5206 35.6142C54.0284 35.5765 52.772 35.5398 51.7153 35.5043V41.7294ZM51.7153 33.5335C53.3593 33.4828 54.5529 33.4085 55.1456 33.3106C55.7747 33.2009 57.0088 33.0669 57.8678 32.9937C58.7389 32.9206 60.8079 32.8109 62.4654 32.75C64.135 32.689 68.5996 32.5671 72.3865 32.494C76.1856 32.4209 79.3797 32.3112 79.5007 32.2503C79.6096 32.1893 79.7548 31.9577 79.8153 31.7383C79.8636 31.519 79.8758 30.9827 79.8274 30.5561C79.779 30.1173 79.6217 29.5079 79.4644 29.2154C79.3192 28.9107 78.9199 28.2647 78.6054 27.7772C78.2787 27.2897 78.0004 26.8997 77.9883 26.8997C77.966 26.8997 77.9746 27.1906 77.9855 27.5613L77.9883 27.6553C78.0246 28.2647 77.9883 28.4597 77.8068 28.6426C77.6858 28.7523 77.456 28.8498 77.2866 28.8498C77.1172 28.8498 76.7179 28.7157 76.3792 28.5329L75.6276 28.0045C74.1583 28.3633 73.2027 28.4782 72.4374 28.5702L72.2419 28.5938C71.9261 28.6324 71.493 28.7243 71.0144 28.8258C70.2826 28.9811 69.4445 29.159 68.7568 29.2032C67.6316 29.2763 65.8047 29.3495 64.7037 29.386C63.6027 29.4104 60.3723 29.3982 57.5049 29.3495C53.0041 29.2642 52.2539 29.2764 51.9393 29.4348C51.8841 29.4626 51.8093 29.4886 51.7153 29.5124V33.5335ZM51.7153 17.4095V14.6888C52.9899 15.5359 54.2363 16.5022 55.4362 17.6033C54.4208 17.5338 53.1659 17.4659 51.7153 17.4095ZM51.7153 18.0564C53.6128 18.1303 55.1712 18.2242 56.2912 18.3148L57.1834 18.3871L56.5397 17.7603C55.0008 16.2619 53.3798 14.9921 51.7153 13.9183V13.3765C52.1927 13.6753 52.6498 13.9718 52.9678 14.1874C53.5969 14.6262 54.6374 15.4062 55.2666 15.906C55.8957 16.4179 56.7668 17.1735 57.9888 18.3192L59.5617 18.5873C60.4328 18.7214 62.054 18.8677 63.1913 18.9164C64.3286 18.953 65.9257 19.0627 66.7605 19.1724C67.5953 19.2699 68.769 19.4649 69.3618 19.599C69.9667 19.7452 70.8621 20.0134 71.3581 20.1962C71.8542 20.3912 72.5438 20.7446 73.4754 21.4028L73.052 21.3297C72.7616 21.2809 72.6043 21.3053 72.5438 21.4272C72.5075 21.5247 72.5196 21.8172 72.5922 22.0853C72.6648 22.3535 72.9189 22.9751 73.1729 23.487C73.427 23.9867 73.911 24.8886 74.2739 25.498C74.6248 26.0952 75.0362 26.7656 75.4717 27.3872L75.1451 27.5091C74.9636 27.5822 74.3949 27.7406 73.8989 27.8625C73.4028 27.9966 72.4712 28.1794 71.8421 28.2891C71.2129 28.3866 70.124 28.5329 69.4223 28.5938C68.7205 28.6669 66.1435 28.7279 63.6753 28.7157C62.0365 28.7157 60.1446 28.694 58.0354 28.6289H52.7285V28.6059L52.7258 28.606L51.7153 27.728V18.0564Z" fill="white"/>
<rect x="15.2608" y="1.14754" width="47.3106" height="47.7049" rx="5.41655" stroke="white" stroke-width="2.29508"/>
<path d="M53.3878 29.2114L52.7319 28.6089L75.2264 27.4741L75.8501 28.0381L68.0027 29.6838L53.3878 29.2114Z" fill="#428BF9"/>
<path d="M72.5188 22.3319C71.8353 20.8043 72.8035 21.0215 73.3731 21.321C74.8465 22.5441 77.7872 25.379 78.0163 26.8997C78.2762 28.6248 77.7141 28.7351 77.4846 28.8458C75.553 29.4823 73.3731 24.2414 72.5188 22.3319Z" fill="#428BF9"/>
<path d="M79.0232 32.2963C74.8441 32.1334 62.5148 32.5872 56.252 33.1399L57.6373 35.2344L59.8884 38.2016C70.9248 39.9238 76.368 37.7071 77.5802 35.9617C78.827 34.542 79.0617 32.9266 79.0232 32.2963Z" fill="#428BF9"/>
<path d="M22.2119 9.17228L23.514 8.95605L22.9285 9.4556L22.5122 10.1723L22.2119 9.17228Z" fill="#428BF9"/>
<path d="M16.8793 10.4901L16.6997 10.1381L18.621 9.77288L20.5488 9.45703L20.854 10.6814L20.8054 10.8069L20.3015 10.2286H19.3487L16.8793 10.4901Z" fill="#428BF9"/>
<defs>
<filter id="filter0_f_253_1328" x="-14.7397" y="-42.8945" width="49.562" height="132.083" filterUnits="userSpaceOnUse" color-interpolation-filters="sRGB">
<feFlood flood-opacity="0" result="BackgroundImageFix"/>
<feBlend mode="normal" in="SourceGraphic" in2="BackgroundImageFix" result="shape"/>
<feGaussianBlur stdDeviation="6.88525" result="effect1_foregroundBlur_253_1328"/>
</filter>
</defs>
</svg>
