<svg width="16" height="13" viewBox="0 0 16 13" fill="none" xmlns="http://www.w3.org/2000/svg">
<path d="M13.3636 0.5H1.90909C1.40293 0.500541 0.917665 0.701851 0.559758 1.05976C0.201851 1.41766 0.000541441 1.90293 0 2.40909V10.5909C0.000541441 11.0971 0.201851 11.5823 0.559758 11.9402C0.917665 12.2981 1.40293 12.4995 1.90909 12.5H13.3636C13.8698 12.4995 14.3551 12.2981 14.713 11.9402C15.0709 11.5823 15.2722 11.0971 15.2727 10.5909V2.40909C15.2722 1.90293 15.0709 1.41766 14.713 1.05976C14.3551 0.701851 13.8698 0.500541 13.3636 0.5ZM12.8802 3.65784L7.97114 7.47602C7.87541 7.55044 7.75761 7.59084 7.63636 7.59084C7.51511 7.59084 7.39732 7.55044 7.30159 7.47602L2.3925 3.65784C2.33482 3.61428 2.28638 3.5597 2.24998 3.49726C2.21358 3.43482 2.18995 3.36576 2.18047 3.29411C2.17099 3.22246 2.17584 3.14964 2.19475 3.07988C2.21366 3.01012 2.24624 2.94481 2.2906 2.88776C2.33497 2.8307 2.39023 2.78302 2.45317 2.74751C2.51612 2.71199 2.5855 2.68934 2.65728 2.68087C2.72906 2.67239 2.8018 2.67827 2.87129 2.69816C2.94078 2.71804 3.00562 2.75154 3.06205 2.7967L7.63636 6.35443L12.2107 2.7967C12.3251 2.71033 12.4689 2.67244 12.6109 2.69124C12.753 2.71005 12.882 2.78402 12.97 2.89718C13.058 3.01033 13.0979 3.15357 13.0811 3.29592C13.0643 3.43826 12.9921 3.56828 12.8802 3.65784Z" fill="#428BF9"/>
</svg>
