<svg width="21" height="21" viewBox="0 0 21 21" fill="none" xmlns="http://www.w3.org/2000/svg">
<path d="M14.6496 13.4722L14.1187 14.0318C14.1187 14.0318 12.8552 15.361 9.40777 11.7317C5.96029 8.10233 7.22378 6.77315 7.22378 6.77315L7.55745 6.41985C8.38228 5.55267 8.46044 4.15924 7.74061 3.14135L6.27062 1.06234C5.3793 -0.197674 3.65847 -0.36444 2.63765 0.710275L0.805994 2.63735C0.30083 3.171 -0.0375011 3.8603 0.00333198 4.62619C0.108331 6.58662 0.945992 10.8027 5.61729 15.7217C10.5721 20.9371 15.2212 21.1447 17.1217 20.9569C17.7237 20.8976 18.2464 20.574 18.6675 20.1293L20.3242 18.385C21.4442 17.2078 21.1292 15.188 19.6965 14.3641L17.4682 13.0806C16.5279 12.5395 15.3846 12.6989 14.6496 13.4722Z" fill="#428BF9"/>
</svg>
