<svg width="65" height="50" viewBox="0 0 65 50" fill="none" xmlns="http://www.w3.org/2000/svg">
<path d="M11.6312 4.47488H53.3632V45.1543H11.6312V4.47488Z" fill="white"/>
<path fill-rule="evenodd" clip-rule="evenodd" d="M32.497 0.207031C35.195 0.207031 37.9624 0.274703 40.6446 0.385438L43.8128 0.533084L46.8453 0.708414L49.6853 0.896048L52.2791 1.09291C55.094 1.30293 57.7428 2.47386 59.7595 4.3997C61.7761 6.32554 63.0315 8.88292 63.3046 11.6219L63.4309 12.9292L63.6675 15.7284C63.8884 18.629 64.0525 21.7911 64.0525 24.8148C64.0525 27.8384 63.8884 31.0005 63.6675 33.9012L63.4309 36.7003C63.3898 37.1494 63.3488 37.5831 63.3046 38.0076C63.0313 40.7471 61.7756 43.3049 59.7583 45.2308C57.741 47.1567 55.0914 48.3273 52.276 48.5366L49.6884 48.7304L46.8484 48.9211L43.8128 49.0965L40.6446 49.2441C37.9303 49.3591 35.2138 49.4186 32.497 49.4225C29.7801 49.4186 27.0636 49.3591 24.3493 49.2441L21.1811 49.0965L18.1487 48.9211L15.3087 48.7304L12.7148 48.5366C9.89987 48.3266 7.2511 47.1557 5.23445 45.2299C3.2178 43.304 1.96246 40.7466 1.68927 38.0076L1.56305 36.7003L1.32638 33.9012C1.0851 30.8779 0.956692 27.8471 0.941406 24.8148C0.941406 21.7911 1.1055 18.629 1.32638 15.7284L1.56305 12.9292C1.60407 12.4801 1.6451 12.0464 1.68927 11.6219C1.96236 8.88341 3.21725 6.32641 5.23325 4.40063C7.24926 2.47485 9.89728 1.30362 12.7116 1.09291L15.3023 0.896048L18.1423 0.708414L21.178 0.533084L24.3462 0.385438C27.0615 0.270498 29.779 0.211016 32.497 0.207031ZM26.1858 17.3555V32.274C26.1858 33.6951 27.7636 34.581 29.0258 33.8735L42.2792 26.4143C42.5676 26.2525 42.8071 26.0194 42.9737 25.7386C43.1403 25.4578 43.228 25.1391 43.228 24.8148C43.228 24.4904 43.1403 24.1718 42.9737 23.891C42.8071 23.6101 42.5676 23.3771 42.2792 23.2153L29.0258 15.7591C28.7379 15.5971 28.4113 15.5118 28.0789 15.5119C27.7464 15.5119 27.4198 15.5973 27.132 15.7594C26.8441 15.9215 26.6051 16.1547 26.4391 16.4354C26.273 16.7162 26.1856 17.0346 26.1858 17.3586V17.3555Z" fill="#FF1818"/>
</svg>
